<svg width="382" height="161" viewBox="0 0 382 161" fill="none" xmlns="http://www.w3.org/2000/svg">
<path d="M80.0192 0.472717C35.8269 0.472717 -0.11615 36.4073 -0.11615 80.5891C-0.11615 124.771 35.8269 160.705 80.0192 160.705C124.212 160.705 160.155 124.771 160.155 80.5891C159.86 36.1127 124.212 0.472717 80.0192 0.472717Z" fill="#F4633A"/>
<path d="M205.525 24.3309H193.741V32.2836H204.347V37.2909H193.446V45.5382H205.231V50.5454H186.965V19.0291H205.231V24.3309H205.525Z" fill="white"/>
<path d="M212.007 30.8109H209.061V25.5091H212.007V19.6182H218.194V25.5091H223.792V30.8109H218.194V42.8873C218.194 44.6545 218.783 45.2436 220.845 45.2436H223.792V50.5454H219.962C215.248 50.5454 212.007 48.4836 212.007 42.8873V30.8109Z" fill="white"/>
<path d="M228.505 17.2618H234.692V28.7491C236.165 26.6873 239.112 25.2145 242.352 25.2145C247.95 25.2145 252.075 29.0436 252.075 35.8182V50.5454H245.888V36.7018C245.888 32.5782 243.825 30.5164 240.29 30.5164C236.755 30.5164 234.692 32.5782 234.692 36.7018V50.5454H228.505V17.2618V17.2618Z" fill="white"/>
<path d="M257.672 19.0291C257.672 16.9673 259.145 15.4945 261.502 15.4945C263.565 15.4945 265.332 16.9673 265.332 19.0291C265.332 21.0909 263.565 22.5636 261.502 22.5636C259.145 22.5636 257.672 21.0909 257.672 19.0291ZM258.262 25.5091H264.448V50.2509H258.262V25.5091Z" fill="white"/>
<path d="M281.536 25.2145C287.723 25.2145 291.848 28.4545 293.321 34.0509H286.545C285.955 31.9891 284.188 30.5164 281.536 30.5164C278.001 30.5164 275.644 33.1673 275.644 37.88C275.644 42.5927 278.001 45.2436 281.536 45.2436C284.188 45.2436 285.661 44.0654 286.545 41.7091H293.321C291.848 47.0109 287.723 50.5454 281.536 50.5454C274.465 50.5454 269.162 45.5382 269.162 37.5854C269.162 29.6327 274.171 25.2145 281.536 25.2145Z" fill="white"/>
<path d="M307.462 25.2145C311.587 25.2145 314.238 26.9818 315.712 29.0436V25.5091H321.898V50.2509H315.712V46.7164C314.238 48.7782 311.292 50.84 307.462 50.84C301.275 50.84 296.267 45.5382 296.267 37.88C296.267 30.2218 301.275 25.2145 307.462 25.2145ZM309.23 30.8109C305.989 30.8109 302.748 33.4618 302.748 38.1745C302.748 42.8873 305.989 45.5382 309.23 45.5382C312.765 45.5382 315.712 42.8873 315.712 38.1745C315.712 33.4618 312.471 30.8109 309.23 30.8109Z" fill="white"/>
<path d="M328.38 17.2618H334.567V50.5454H328.38V17.2618Z" fill="white"/>
<path d="M185.492 66.7455H208.472V71.7527H200.222V97.9673H194.035V71.7527H185.786V66.7455H185.492Z" fill="white"/>
<path d="M217.31 97.9673H211.123V73.2255H217.31V77.0545C218.783 74.4036 221.435 72.9309 224.97 72.9309V79.4109H223.202C219.372 79.4109 217.31 80.8836 217.31 85.5964V97.9673Z" fill="white"/>
<path d="M238.228 72.9309C242.352 72.9309 245.004 74.6982 246.477 76.76V73.2255H252.664V97.9673H246.477V94.4327C245.004 96.4946 242.058 98.5564 238.228 98.5564C232.041 98.5564 227.032 93.2546 227.032 85.5964C226.738 77.6436 231.746 72.9309 238.228 72.9309ZM239.701 78.2327C236.46 78.2327 233.219 80.8836 233.219 85.5964C233.219 90.3091 236.46 92.96 239.701 92.96C243.236 92.96 246.182 90.3091 246.182 85.5964C246.182 80.8836 243.236 78.2327 239.701 78.2327Z" fill="white"/>
<path d="M268.573 72.9309C271.814 72.9309 275.055 74.4036 276.822 76.76V64.9782H283.304V98.2618H276.822V94.7273C275.349 97.0836 272.698 98.8509 268.573 98.8509C262.386 98.8509 257.083 93.5491 257.083 85.8909C257.083 77.6436 262.092 72.9309 268.573 72.9309ZM270.046 78.2327C266.805 78.2327 263.565 80.8836 263.565 85.5964C263.565 90.3091 266.805 92.96 270.046 92.96C273.582 92.96 276.528 90.3091 276.528 85.5964C276.822 80.8836 273.582 78.2327 270.046 78.2327Z" fill="white"/>
<path d="M288.607 66.4509C288.607 64.3891 290.08 62.9164 292.437 62.9164C294.499 62.9164 296.267 64.3891 296.267 66.4509C296.267 68.5127 294.499 69.9854 292.437 69.9854C290.08 70.28 288.607 68.5127 288.607 66.4509ZM289.196 73.2254H295.383V97.9673H289.196V73.2254Z" fill="white"/>
<path d="M319.247 84.4182C319.247 80.2946 317.185 78.2327 313.649 78.2327C310.114 78.2327 308.052 80.2946 308.052 84.4182V98.2618H301.865V73.52H308.052V76.76C309.525 74.6982 312.471 73.2255 315.417 73.2255C321.309 73.2255 325.434 77.0546 325.434 83.8291V98.5564H319.247V84.4182Z" fill="white"/>
<path d="M341.343 72.9309C345.173 72.9309 348.119 74.6982 349.592 76.76V73.2255H355.779V98.2618C355.779 105.036 351.655 110.338 343.405 110.338C336.335 110.338 331.621 106.804 330.737 101.207H336.924C337.513 103.564 339.87 105.036 343.111 105.036C346.646 105.036 349.298 102.975 349.298 98.5564V94.7273C347.825 96.7891 344.878 98.8509 341.048 98.8509C334.862 98.8509 329.558 93.5491 329.558 85.8909C329.853 77.6436 334.862 72.9309 341.343 72.9309ZM342.816 78.2327C339.575 78.2327 336.335 80.8836 336.335 85.5964C336.335 90.3091 339.575 92.96 342.816 92.96C346.352 92.96 349.298 90.3091 349.298 85.5964C349.298 80.8836 346.352 78.2327 342.816 78.2327Z" fill="white"/>
<path d="M187.259 114.167H193.446V145.389H187.259V114.167Z" fill="white"/>
<path d="M217.015 131.84C217.015 127.716 214.953 125.655 211.418 125.655C207.882 125.655 205.82 127.716 205.82 131.84V145.684H199.633V120.942H205.82V124.182C207.293 122.12 210.239 120.647 213.185 120.647C219.078 120.647 223.202 124.476 223.202 131.251V145.978H217.015V131.84Z" fill="white"/>
<path d="M228.8 114.167C228.8 112.105 230.273 110.633 232.63 110.633C234.692 110.633 236.46 112.105 236.46 114.167C236.46 116.229 234.692 117.702 232.63 117.702C230.273 117.702 228.8 116.229 228.8 114.167ZM229.389 120.647H235.576V145.389H229.389V120.647Z" fill="white"/>
<path d="M242.942 125.949H239.995V120.647H242.942V114.462H249.128V120.647H254.726V125.949H249.128V138.025C249.128 139.793 249.718 140.382 251.78 140.382H254.726V145.684H250.896C246.182 145.684 242.942 143.622 242.942 138.025V125.949Z" fill="white"/>
<path d="M258.556 114.167C258.556 112.105 260.029 110.633 262.386 110.633C264.448 110.633 266.216 112.105 266.216 114.167C266.216 116.229 264.448 117.702 262.386 117.702C260.324 117.702 258.556 116.229 258.556 114.167ZM259.44 120.647H265.627V145.389H259.44V120.647Z" fill="white"/>
<path d="M281.536 120.353C285.661 120.353 288.312 122.12 289.785 124.182V120.647H295.972V145.389H289.785V141.855C288.312 143.916 285.366 145.978 281.536 145.978C275.349 145.978 270.341 140.676 270.341 133.018C270.341 125.36 275.349 120.353 281.536 120.353ZM283.304 125.949C280.063 125.949 276.822 128.6 276.822 133.313C276.822 138.025 280.063 140.676 283.304 140.676C286.839 140.676 289.785 138.025 289.785 133.313C289.785 128.6 286.545 125.949 283.304 125.949Z" fill="white"/>
<path d="M303.338 125.949H300.392V120.647H303.338V114.462H309.525V120.647H315.122V125.949H309.525V138.025C309.525 139.793 310.114 140.382 312.176 140.382H315.122V145.684H311.292C306.578 145.684 303.338 143.622 303.338 138.025V125.949Z" fill="white"/>
<path d="M318.952 114.167C318.952 112.105 320.425 110.633 322.782 110.633C324.845 110.633 326.612 112.105 326.612 114.167C326.612 116.229 324.845 117.702 322.782 117.702C320.72 117.702 318.952 116.229 318.952 114.167ZM319.836 120.647H326.023V145.389H319.836V120.647Z" fill="white"/>
<path d="M336.335 120.647L342.522 139.793L348.708 120.647H355.485L346.352 145.389H338.692L329.558 120.647H336.335Z" fill="white"/>
<path d="M369.626 145.978C362.261 145.978 357.252 140.971 357.252 133.018C357.252 125.065 362.261 120.058 369.626 120.058C376.697 120.058 382 125.065 382 132.429C382 133.313 382 133.902 381.705 134.785H363.439C363.734 138.32 366.385 140.676 369.332 140.676C371.983 140.676 373.456 139.204 374.34 137.731H381.116C379.938 142.444 375.813 145.978 369.626 145.978ZM363.439 130.956H375.224C375.224 127.716 372.572 125.655 369.332 125.655C366.385 125.655 364.028 127.422 363.439 130.956Z" fill="white"/>
<path d="M104.767 93.8436C107.418 96.4945 109.186 100.324 109.186 104.447C109.186 112.989 102.41 119.764 93.8661 119.764C85.3223 119.764 78.5462 112.989 78.5462 104.447V104.153C78.5462 102.385 78.8408 100.913 79.43 99.1454C79.7246 98.2618 80.0192 97.3782 80.6085 96.7891L82.9654 98.2618L93.8661 104.447V92.0764V89.4254V72.0473V69.3964V57.0255L82.9654 63.2109L80.6085 64.6836L65.5831 73.52L63.2261 74.9927L52.3254 81.1782L63.2261 87.3636L65.5831 88.8364C64.9938 89.72 64.6992 90.3091 64.4046 91.1927C62.3423 95.3164 61.1638 100.029 61.1638 105.036C61.1638 107.687 61.4585 110.044 62.0477 112.4C62.3423 113.284 62.3423 114.167 62.6369 115.051C66.7615 128.305 79.1354 137.731 93.8661 137.731C111.838 137.731 126.568 123.004 126.568 105.036C126.568 97.6727 124.212 91.1927 120.087 85.5964C115.962 89.1309 110.659 92.0763 104.767 93.8436Z" fill="white"/>
<path d="M93.8662 23.7418C80.6085 23.7418 69.1185 31.6945 64.11 43.1818C70.0023 44.9491 75.0108 48.1891 79.43 52.3127C81.1977 45.8327 87.09 41.4145 94.1608 41.4145C102.705 41.4145 109.481 48.1891 109.481 56.7309C109.481 62.3273 106.24 67.3345 101.526 69.9854C101.232 70.28 100.642 70.28 100.348 70.5745V88.8364C106.535 87.6582 111.838 84.7127 116.257 80.5891C116.846 80 117.435 79.4109 118.025 78.8218C123.328 72.9309 126.568 65.2727 126.568 56.7309C126.568 38.4691 112.132 23.7418 93.8662 23.7418Z" fill="white"/>
<path d="M55.8608 95.3163C54.6823 95.6109 53.5038 95.6109 52.3254 95.6109C43.7815 95.6109 37.0054 88.8364 37.0054 80.2945C37.0054 71.7527 43.7815 64.9782 52.3254 64.9782C55.2715 64.9782 57.9231 65.8618 60.28 67.04C60.5746 67.3345 61.1639 67.6291 61.4585 67.6291L77.3677 58.4982C73.5377 54.08 68.2346 50.5455 62.3423 48.7782C61.4585 48.4836 60.5746 48.1891 59.6908 48.1891C57.3338 47.6 54.9769 47.3055 52.62 47.3055C34.6485 47.3055 19.9177 62.0327 19.9177 80C19.9177 97.9673 34.6485 112.695 52.62 112.695C53.7985 112.695 54.9769 112.695 56.1554 112.4C55.5662 109.455 54.9769 106.509 54.9769 103.564C54.9769 100.913 55.2715 97.9673 55.8608 95.3163Z" fill="white"/>
</svg>
