<svg width="378" height="162" viewBox="0 0 378 162" fill="none" xmlns="http://www.w3.org/2000/svg">
<path d="M119.441 78.8388C118.83 79.505 118.188 80.146 117.525 80.7627C112.259 85.6523 105.396 88.8414 97.8063 89.4627V72.0602V71.6851C99.4943 71.3804 101.093 70.8075 102.54 69.9966C107.246 67.3731 110.431 62.3518 110.431 56.5826C110.431 48.1012 103.554 41.2242 95.0729 41.2242C86.5927 41.2242 79.7125 48.1012 79.7125 56.5826C79.7125 56.6752 79.726 56.7659 79.726 56.856C75.4396 52.1007 69.8917 48.4982 63.6172 46.5831C67.8527 33.245 80.3323 23.58 95.0729 23.58C113.298 23.58 128.075 38.357 128.075 56.5851C128.075 65.1586 124.802 72.9706 119.441 78.8388V78.8388ZM95.0729 137.943C80.3323 137.943 67.8516 128.279 63.6172 114.945C63.3432 114.08 63.1099 113.201 62.9041 112.31C62.3645 109.939 62.0688 107.477 62.0688 104.941C62.0688 99.9064 63.2031 95.1346 65.2208 90.8612C65.6093 90.0367 66.0407 89.2304 66.4959 88.4446L66.4844 88.4351L64.1407 87.081L64.1136 87.0679L53.1932 80.7607L64.1136 74.4564L64.138 74.4398L66.4812 73.0888L66.4959 73.0804L81.7677 64.2627L81.7817 64.2544L84.1251 62.9034L84.1527 62.8862L95.0729 56.5826V69.2075V71.9403V89.5836V92.317V104.941L84.1527 98.6372L84.1251 98.6216L81.7817 97.2695C81.3271 98.0586 80.9401 98.8898 80.6276 99.7607C80.0771 101.299 79.7593 102.947 79.726 104.668C79.726 104.761 79.7125 104.848 79.7125 104.941C79.7125 113.425 86.5927 120.3 95.0729 120.3C103.554 120.3 110.431 113.425 110.431 104.941C110.431 99.1722 107.246 94.1503 102.542 91.5279C108.986 90.1512 114.792 87.0315 119.44 82.6878C124.802 88.5564 128.075 96.3674 128.075 104.941C128.075 123.169 113.301 137.943 95.0729 137.943V137.943ZM60.2625 112.999C57.9844 113.495 55.6219 113.763 53.1932 113.763C34.9631 113.763 20.1891 98.9888 20.1891 80.7612C20.1891 62.5367 34.9631 47.7602 53.1932 47.7602C55.6219 47.7602 57.9844 48.0283 60.2651 48.5268C61.1588 48.7216 62.0412 48.9498 62.9052 49.2154C70.0401 51.4075 76.138 55.958 80.3047 61.9528L65.2208 70.6612L64.9057 70.8414C63.8229 69.5616 62.5287 68.4736 61.0849 67.6044C58.7765 66.2154 56.0823 65.4034 53.1932 65.4034C44.7099 65.4034 37.8328 72.2783 37.8328 80.7612C37.8328 89.245 44.7099 96.1227 53.1932 96.1227C56.0823 96.1227 58.7765 95.3075 61.0849 93.9211C59.9552 97.3935 59.336 101.097 59.336 104.943C59.336 107.714 59.6645 110.407 60.2625 112.999V112.999ZM80.7604 0.00402981C36.1541 0.00402981 0 36.1596 0 80.7638C0 125.363 36.1541 161.52 80.7604 161.52C125.359 161.52 161.512 125.363 161.512 80.7638C161.512 36.1596 125.359 0.00402981 80.7604 0.00402981Z" fill="#F68712"/>
<path d="M187.879 49.5773V15.208H207.021L205.301 20.4747H194.189V29.3919H205.301V34.6621H194.189V44.3101H207.021V49.5773H187.879Z" fill="white"/>
<path d="M220.371 50.0997C215.989 50.0997 214.269 47.6481 214.269 44.3101V29.6039H209.889V24.9067H214.269V19.2227L220.527 17.344V24.9067H228.196L226.368 29.6039H220.527V42.0153C220.527 43.9476 221.257 44.8336 222.873 44.8336C224.439 44.8336 226.056 44.1039 226.996 43.4741L228.664 47.4408C226.111 49.2643 222.773 50.0997 220.371 50.0997" fill="white"/>
<path d="M248.959 49.5773V35.182C248.959 32.4184 248.541 29.8101 245.203 29.8101C243.064 29.8101 240.875 31.0096 239.204 32.4184V49.5773H232.945V12.6507H239.204V27.5693C241.499 25.692 244.212 24.3333 247.395 24.3333C251.201 24.3333 255.269 26.16 255.269 33.4096V49.5773H248.959Z" fill="white"/>
<path d="M260.589 49.5773V24.9067H266.849V49.5773H260.589ZM263.72 21.1013C261.581 21.1013 259.861 19.432 259.861 17.2933C259.861 15.26 261.581 13.5373 263.72 13.5373C265.911 13.5373 267.632 15.208 267.632 17.2933C267.632 19.3787 265.911 21.1013 263.72 21.1013Z" fill="white"/>
<path d="M284.477 50.0997C276.445 50.0997 272.327 44.3101 272.327 37.3727C272.327 29.8653 277.749 24.3333 285.105 24.3333C288.444 24.3333 290.739 25.168 292.147 26.0547L292.041 31.1689C290.321 29.8653 288.389 29.1351 285.836 29.1351C281.611 29.1351 278.584 32.4731 278.584 37.0607C278.584 41.2856 280.88 45.0397 285.781 45.0397C288.131 45.0397 289.903 44.3101 291.624 43.3184L293.188 47.4408C291.207 48.796 287.868 50.0997 284.477 50.0997" fill="white"/>
<path d="M310.243 38.2596L306.699 38.3648C303.308 38.4695 301.793 39.6173 301.793 41.7028C301.793 43.7356 303.204 45.1455 305.812 45.1455C308.003 45.1455 309.409 44.3101 310.243 43.5799V38.2596ZM311.809 49.5773L310.767 47.3872C309.151 48.8471 306.905 50.0997 303.621 50.0997C299.084 50.0997 295.536 47.0236 295.536 42.1711C295.536 37.0607 299.553 34.2965 305.863 34.0888L310.243 33.9331C310.243 33.7216 310.243 33.4607 310.243 33.3044C310.243 30.3331 308.159 29.1351 305.551 29.1351C302.839 29.1351 300.752 30.0211 299.187 30.9585L297.152 27.0467C300.44 24.856 303.517 24.3333 306.801 24.3333C312.907 24.3333 316.608 26.8387 316.608 33.3044V43.0569C316.608 46.6049 316.712 48.4293 317.077 49.5773H311.809" fill="white"/>
<path d="M328.136 50.0997C324.015 50.0997 322.452 47.7533 322.452 44.6773V12.6507H328.708V41.9132C328.708 43.7356 329.073 44.4664 330.376 44.4664C330.795 44.4664 331.317 44.4159 332.204 44.2049L332.984 48.8471C331.16 49.8388 329.543 50.0997 328.136 50.0997Z" fill="white"/>
<path d="M209.837 69.1569H200.447V98.258H194.085V69.1569H184.123V63.8903H211.349L209.837 69.1569Z" fill="white"/>
<path d="M224.696 79.3779C223.653 78.7544 222.557 78.5971 221.776 78.5971C220.316 78.5971 218.7 79.2768 217.029 80.7872V98.258H210.771V73.5888H216.039L216.716 76.1965C219.273 73.9555 221.203 73.0153 223.549 73.0153C224.749 73.0153 226.053 73.382 226.992 74.0601L224.696 79.3779" fill="white"/>
<path d="M243.371 86.9403L239.828 87.046C236.437 87.1512 234.924 88.2987 234.924 90.3845C234.924 92.4184 236.332 93.8273 238.94 93.8273C241.132 93.8273 242.539 92.9908 243.371 92.2621V86.9403ZM244.939 98.258L243.895 96.0679C242.279 97.5288 240.033 98.7815 236.751 98.7815C232.212 98.7815 228.667 95.7049 228.667 90.8528C228.667 85.7408 232.683 82.9783 238.993 82.7695L243.371 82.6132C243.371 82.4039 243.371 82.1419 243.371 81.9856C243.371 79.0153 241.288 77.8169 238.68 77.8169C235.967 77.8169 233.881 78.7023 232.316 79.6397L230.281 75.7273C233.568 73.5383 236.645 73.0153 239.931 73.0153C246.036 73.0153 249.736 75.5205 249.736 81.9856V91.7397C249.736 95.2867 249.841 97.1112 250.207 98.258H244.939" fill="white"/>
<path d="M270.235 78.3361C269.4 78.1283 268.672 77.9731 267.313 77.9731C262.88 77.9731 259.699 80.9435 259.699 85.7935C259.699 90.2788 262.619 93.6164 267.417 93.6164C268.409 93.6164 269.505 93.4601 270.235 93.2544V78.3361ZM266.844 98.7815C259.489 98.7815 253.441 94.4523 253.441 86.108C253.441 78.4408 259.127 73.0153 267.105 73.0153C268.357 73.0153 269.348 73.0689 270.235 73.2252V61.3331H276.495V96.7987C274.147 98.0017 271.068 98.7815 266.844 98.7815" fill="white"/>
<path d="M281.867 98.258V73.5888H288.125V98.258H281.867ZM284.996 69.7815C282.859 69.7815 281.136 68.1143 281.136 65.9747C281.136 63.9408 282.859 62.2195 284.996 62.2195C287.188 62.2195 288.908 63.8903 288.908 65.9747C288.908 68.0601 287.188 69.7815 284.996 69.7815Z" fill="white"/>
<path d="M310.867 98.258V83.7596C310.867 81.2049 310.396 78.3861 307.216 78.3861C305.024 78.3861 302.888 79.534 300.956 80.9945V98.258H294.696V73.5888H300.016L300.696 76.2507C303.355 74.2679 306.015 73.0153 309.352 73.0153C313.107 73.0153 317.125 75.2596 317.125 81.8845V98.258H310.867" fill="white"/>
<path d="M332.303 77.7112C330.009 77.7112 328.181 79.2216 328.181 82.0408C328.181 84.6487 329.797 86.8388 332.561 86.8388C335.015 86.8388 336.944 85.3241 336.944 82.2987C336.944 80.0069 335.224 77.7112 332.303 77.7112ZM327.975 99.0435C327.14 99.6164 325.887 100.555 325.887 102.276C325.887 104.361 328.493 106.137 332.771 106.137C336.369 106.137 339.032 104.989 339.032 103.056C339.032 99.8779 330.739 100.191 327.975 99.0435V99.0435ZM332.249 110.568C324.844 110.568 320.515 107.23 320.515 103.267C320.515 100.45 322.548 98.4689 325.053 97.3727C323.852 96.7476 323.383 95.3935 323.383 94.296C323.383 92.784 324.427 91.0096 326.515 89.7049C323.852 88.3492 322.236 85.2736 322.236 82.1419C322.236 77.4503 325.783 72.9121 332.459 72.9121C334.44 72.9121 336.057 73.382 337.152 74.006C337.465 74.1621 337.623 74.0601 337.777 73.8497C339.239 72.4949 341.429 71.5033 345.549 71.9216L344.248 76.5632C342.944 76.3023 341.744 76.146 340.753 76.5632C342.212 78.1283 343.099 79.9512 343.099 82.7695C343.099 88.1419 338.508 91.6372 332.98 91.6372C331.676 91.6372 330.687 91.5315 329.641 91.1684C329.224 91.844 329.016 92.3673 329.016 93.1487C329.016 96.8528 345.864 93.3596 345.864 102.38C345.864 106.656 341.533 110.568 332.249 110.568" fill="white"/>
<path d="M188.923 146.94V112.572H195.233V146.94H188.923Z" fill="white"/>
<path d="M216.775 146.94V132.44C216.775 129.887 216.307 127.069 213.123 127.069C210.935 127.069 208.793 128.216 206.865 129.676V146.94H200.608V122.269H205.924L206.605 124.933C209.263 122.95 211.923 121.695 215.261 121.695C219.017 121.695 223.033 123.941 223.033 130.565V146.94H216.775" fill="white"/>
<path d="M228.405 146.94V122.269H234.663V146.94H228.405ZM231.535 118.464C229.396 118.464 227.675 116.797 227.675 114.656C227.675 112.623 229.396 110.901 231.535 110.901C233.725 110.901 235.448 112.572 235.448 114.656C235.448 116.742 233.725 118.464 231.535 118.464Z" fill="white"/>
<path d="M249.581 147.463C245.2 147.463 243.479 145.012 243.479 141.675V126.966H239.097V122.269H243.479V116.586L249.736 114.707V122.269H257.404L255.579 126.966H249.736V139.377C249.736 141.311 250.467 142.197 252.084 142.197C253.648 142.197 255.265 141.465 256.205 140.837L257.873 144.805C255.32 146.628 251.981 147.463 249.581 147.463Z" fill="white"/>
<path d="M261.004 146.94V122.269H267.261V146.94H261.004ZM264.135 118.464C261.996 118.464 260.273 116.797 260.273 114.656C260.273 112.623 261.996 110.901 264.135 110.901C266.325 110.901 268.047 112.572 268.047 114.656C268.047 116.742 266.325 118.464 264.135 118.464Z" fill="white"/>
<path d="M286.353 135.623L282.805 135.727C279.416 135.832 277.904 136.981 277.904 139.065C277.904 141.099 279.311 142.51 281.919 142.51C284.109 142.51 285.519 141.675 286.353 140.943V135.623ZM287.917 146.94L286.873 144.751C285.256 146.211 283.015 147.463 279.728 147.463C275.192 147.463 271.645 144.387 271.645 139.535C271.645 134.424 275.66 131.659 281.973 131.452L286.353 131.296C286.353 131.085 286.353 130.824 286.353 130.667C286.353 127.697 284.265 126.498 281.657 126.498C278.947 126.498 276.861 127.385 275.296 128.322L273.26 124.409C276.545 122.219 279.624 121.695 282.911 121.695C289.012 121.695 292.716 124.202 292.716 130.667V140.42C292.716 143.969 292.819 145.792 293.185 146.94H287.917" fill="white"/>
<path d="M306.904 147.463C302.523 147.463 300.8 145.012 300.8 141.675V126.966H296.421V122.269H300.8V116.586L307.061 114.707V122.269H314.727L312.903 126.966H307.061V139.377C307.061 141.311 307.792 142.197 309.407 142.197C310.972 142.197 312.589 141.465 313.527 140.837L315.197 144.805C312.64 146.628 309.303 147.463 306.904 147.463" fill="white"/>
<path d="M319.369 146.94V122.269H325.629V146.94H319.369ZM322.497 118.464C320.361 118.464 318.641 116.797 318.641 114.656C318.641 112.623 320.361 110.901 322.497 110.901C324.689 110.901 326.409 112.572 326.409 114.656C326.409 116.742 324.689 118.464 322.497 118.464Z" fill="white"/>
<path d="M344.144 147.095H339.605L329.488 122.269H335.904L342.057 139.065H342.161L348.421 122.269H354.471L344.144 147.095" fill="white"/>
<path d="M366.723 126.392C363.699 126.392 361.871 129.102 361.871 131.815H371.468C371.365 129.156 369.904 126.392 366.723 126.392ZM362.028 136.251C362.133 139.901 365.157 142.455 368.967 142.455C371.311 142.455 373.241 141.884 375.38 140.736L376.892 144.751C374.129 146.681 370.843 147.463 367.921 147.463C359.315 147.463 355.665 141.205 355.665 134.58C355.665 127.541 359.837 121.695 366.879 121.695C373.553 121.695 377.937 126.757 377.937 134.424C377.937 134.841 377.937 135.467 377.937 136.251H362.028" fill="white"/>
</svg>
