<?xml version="1.0" encoding="UTF-8" standalone="no"?>
<svg width="430px" height="86px" viewBox="0 0 430 86" version="1.1" xmlns="http://www.w3.org/2000/svg" xmlns:xlink="http://www.w3.org/1999/xlink">
    <!-- Generator: Sketch 48.2 (47327) - http://www.bohemiancoding.com/sketch -->
    <title>eti-20-years-logo</title>
    <desc>Created with Sketch.</desc>
    <defs>
        <polygon id="path-1" points="0.06 0.135 63.281 0.135 63.281 84.595 0.06 84.595"></polygon>
    </defs>
    <g id="Page-1" stroke="none" stroke-width="1" fill="none" fill-rule="evenodd">
        <g id="eti-20-years-logo">
            <g id="Group-3">
                <mask id="mask-2" fill="white">
                    <use xlink:href="#path-1"></use>
                </mask>
                <g id="Clip-2"></g>
                <path d="M0,84.595 C3.298,44.141 40.581,40.716 40.581,25.245 C40.581,18.523 35.001,16.368 29.168,16.368 C20.544,16.368 14.203,19.031 7.356,22.075 L3.17,7.237 C10.906,4.066 20.671,0.135 33.226,0.135 C52.502,0.135 61.76,9.519 61.76,23.089 C61.76,44.648 30.309,54.032 24.856,68.87 L63.281,68.109 L63.281,84.595 L0,84.595" id="Fill-1" fill="#EB8B2D" mask="url(#mask-2)"></path>
            </g>
            <path d="M129.747,42.045 C129.422,42.399 129.081,42.74 128.728,43.068 C125.929,45.668 122.28,47.363 118.245,47.693 L118.245,38.242 C119.143,38.081 119.992,37.776 120.761,37.345 C123.264,35.95 124.957,33.28 124.957,30.213 C124.957,25.705 121.301,22.049 116.792,22.049 C112.284,22.049 108.626,25.705 108.626,30.213 C108.626,30.263 108.633,30.311 108.633,30.359 C106.355,27.831 103.405,25.916 100.07,24.897 C102.321,17.807 108.956,12.669 116.792,12.669 C126.481,12.669 134.337,20.524 134.337,30.214 C134.337,34.772 132.597,38.926 129.747,42.045 Z M116.792,73.467 C108.956,73.467 102.321,68.328 100.07,61.239 C99.924,60.78 99.8,60.312 99.691,59.839 C99.404,58.579 99.246,57.27 99.246,55.922 C99.246,53.246 99.85,50.708 100.922,48.437 C101.129,47.998 101.358,47.57 101.6,47.151 L101.594,47.147 L100.348,46.427 L100.334,46.42 L94.528,43.067 L100.334,39.715 L100.346,39.707 L101.592,38.988 L101.6,38.984 L109.719,34.296 L109.726,34.292 L110.972,33.574 L110.987,33.565 L116.792,30.213 L116.792,55.922 L110.987,52.571 L110.972,52.562 L109.726,51.844 C109.485,52.263 109.279,52.705 109.113,53.168 C108.82,53.986 108.651,54.861 108.633,55.776 C108.633,55.826 108.626,55.873 108.626,55.922 C108.626,60.432 112.284,64.087 116.792,64.087 C121.3,64.087 124.957,60.432 124.957,55.922 C124.957,52.855 123.263,50.185 120.763,48.791 C124.189,48.06 127.275,46.401 129.746,44.091 C132.596,47.211 134.337,51.364 134.337,55.922 C134.337,65.612 126.483,73.467 116.792,73.467 Z M98.286,60.205 C97.075,60.469 95.819,60.612 94.528,60.612 C84.837,60.612 76.983,52.758 76.983,43.067 C76.983,33.379 84.837,25.523 94.528,25.523 C95.819,25.523 97.075,25.666 98.288,25.931 C98.763,26.035 99.232,26.155 99.691,26.297 C103.484,27.462 106.726,29.881 108.941,33.068 L100.922,37.698 L100.755,37.794 C100.179,37.113 99.491,36.535 98.723,36.073 C97.497,35.334 96.064,34.903 94.528,34.903 C90.018,34.903 86.363,38.558 86.363,43.067 C86.363,47.577 90.018,51.233 94.528,51.233 C96.064,51.233 97.497,50.801 98.723,50.063 C98.123,51.91 97.794,53.878 97.794,55.923 C97.794,57.396 97.968,58.828 98.286,60.205 Z M109.183,0.135 C85.47,0.135 66.25,19.356 66.25,43.069 C66.25,66.779 85.47,86 109.183,86 C132.893,86 152.113,66.779 152.113,43.069 C152.113,19.356 132.893,0.135 109.183,0.135 Z" id="Fill-4" fill="#EB8B2D"></path>
            <polyline id="Fill-5" fill="#FFFFFE" points="171.376 24.699 171.376 4.451 182.654 4.451 181.64 7.553 175.093 7.553 175.093 12.807 181.64 12.807 181.64 15.911 175.093 15.911 175.093 21.596 182.654 21.596 182.654 24.699 171.376 24.699"></polyline>
            <path d="M190.518,25.006 C187.937,25.006 186.923,23.562 186.923,21.596 L186.923,12.932 L184.342,12.932 L184.342,10.164 L186.923,10.164 L186.923,6.815 L190.61,5.709 L190.61,10.164 L195.128,10.164 L194.052,12.932 L190.61,12.932 L190.61,20.243 C190.61,21.382 191.04,21.904 191.992,21.904 C192.915,21.904 193.867,21.474 194.422,21.103 L195.404,23.44 C193.9,24.514 191.933,25.006 190.518,25.006" id="Fill-6" fill="#FFFFFE"></path>
            <path d="M207.361,24.699 L207.361,16.218 C207.361,14.59 207.114,13.053 205.148,13.053 C203.888,13.053 202.598,13.759 201.614,14.59 L201.614,24.699 L197.926,24.699 L197.926,2.944 L201.614,2.944 L201.614,11.733 C202.966,10.626 204.564,9.826 206.439,9.826 C208.682,9.826 211.078,10.902 211.078,15.173 L211.078,24.699 L207.361,24.699" id="Fill-7" fill="#FFFFFE"></path>
            <path d="M214.213,24.699 L217.901,24.699 L217.901,10.164 L214.213,10.164 L214.213,24.699 Z M216.057,7.922 C214.797,7.922 213.783,6.939 213.783,5.679 C213.783,4.48 214.797,3.466 216.057,3.466 C217.348,3.466 218.362,4.451 218.362,5.679 C218.362,6.907 217.348,7.922 216.057,7.922 Z" id="Fill-8" fill="#FFFFFE"></path>
            <path d="M228.286,25.006 C223.554,25.006 221.127,21.596 221.127,17.508 C221.127,13.085 224.322,9.826 228.655,9.826 C230.622,9.826 231.975,10.318 232.804,10.84 L232.742,13.853 C231.729,13.085 230.591,12.655 229.086,12.655 C226.597,12.655 224.815,14.622 224.815,17.324 C224.815,19.813 226.167,22.025 229.055,22.025 C230.439,22.025 231.483,21.596 232.496,21.011 L233.418,23.44 C232.251,24.238 230.284,25.006 228.286,25.006" id="Fill-9" fill="#FFFFFE"></path>
            <path d="M243.466,18.031 L241.377,18.093 C239.38,18.155 238.488,18.831 238.488,20.059 C238.488,21.257 239.319,22.088 240.856,22.088 C242.146,22.088 242.975,21.596 243.466,21.165 L243.466,18.031 Z M244.388,24.699 L243.775,23.408 C242.822,24.269 241.499,25.006 239.565,25.006 C236.892,25.006 234.801,23.194 234.801,20.335 C234.801,17.324 237.168,15.696 240.885,15.574 L243.466,15.482 C243.466,15.357 243.466,15.204 243.466,15.111 C243.466,13.361 242.238,12.655 240.701,12.655 C239.103,12.655 237.874,13.177 236.952,13.729 L235.753,11.424 C237.691,10.134 239.503,9.826 241.438,9.826 C245.034,9.826 247.216,11.303 247.216,15.111 L247.216,20.857 C247.216,22.948 247.278,24.022 247.492,24.699 L244.388,24.699 Z" id="Fill-10" fill="#FFFFFE"></path>
            <path d="M254.007,25.006 C251.579,25.006 250.658,23.624 250.658,21.811 L250.658,2.944 L254.345,2.944 L254.345,20.183 C254.345,21.257 254.56,21.687 255.327,21.687 C255.573,21.687 255.881,21.658 256.404,21.534 L256.863,24.269 C255.789,24.852 254.836,25.006 254.007,25.006" id="Fill-11" fill="#FFFFFE"></path>
            <polyline id="Fill-12" fill="#FFFFFE" points="184.312 36.234 178.78 36.234 178.78 53.379 175.032 53.379 175.032 36.234 169.163 36.234 169.163 33.131 185.203 33.131 184.312 36.234"></polyline>
            <path d="M193.067,42.255 C192.452,41.888 191.806,41.795 191.346,41.795 C190.486,41.795 189.534,42.196 188.549,43.086 L188.549,53.379 L184.863,53.379 L184.863,38.845 L187.966,38.845 L188.365,40.381 C189.872,39.061 191.008,38.507 192.391,38.507 C193.097,38.507 193.866,38.723 194.419,39.123 L193.067,42.255" id="Fill-13" fill="#FFFFFE"></path>
            <path d="M204.069,46.711 L201.981,46.773 C199.984,46.835 199.092,47.511 199.092,48.74 C199.092,49.938 199.922,50.768 201.458,50.768 C202.749,50.768 203.578,50.276 204.069,49.846 L204.069,46.711 Z M204.992,53.379 L204.378,52.088 C203.425,52.949 202.103,53.686 200.168,53.686 C197.494,53.686 195.405,51.874 195.405,49.016 C195.405,46.004 197.772,44.376 201.489,44.254 L204.069,44.162 C204.069,44.038 204.069,43.884 204.069,43.792 C204.069,42.042 202.842,41.335 201.305,41.335 C199.706,41.335 198.478,41.857 197.555,42.41 L196.357,40.105 C198.294,38.815 200.106,38.507 202.042,38.507 C205.638,38.507 207.819,39.983 207.819,43.792 L207.819,49.538 C207.819,51.628 207.881,52.703 208.096,53.379 L204.992,53.379 Z" id="Fill-14" fill="#FFFFFE"></path>
            <path d="M219.895,41.642 C219.404,41.519 218.974,41.428 218.174,41.428 C215.563,41.428 213.688,43.178 213.688,46.035 C213.688,48.678 215.408,50.644 218.236,50.644 C218.82,50.644 219.465,50.552 219.895,50.43 L219.895,41.642 Z M217.898,53.686 C213.565,53.686 210.001,51.136 210.001,46.221 C210.001,41.704 213.351,38.507 218.051,38.507 C218.789,38.507 219.373,38.539 219.895,38.631 L219.895,31.624 L223.583,31.624 L223.583,52.519 C222.2,53.227 220.386,53.686 217.898,53.686 Z" id="Fill-15" fill="#FFFFFE"></path>
            <path d="M226.748,53.379 L230.436,53.379 L230.436,38.845 L226.748,38.845 L226.748,53.379 Z M228.592,36.602 C227.332,36.602 226.318,35.62 226.318,34.359 C226.318,33.161 227.332,32.147 228.592,32.147 C229.883,32.147 230.897,33.131 230.897,34.359 C230.897,35.587 229.883,36.602 228.592,36.602 Z" id="Fill-16" fill="#FFFFFE"></path>
            <path d="M243.833,53.379 L243.833,44.836 C243.833,43.332 243.556,41.671 241.683,41.671 C240.391,41.671 239.132,42.348 237.994,43.208 L237.994,53.379 L234.306,53.379 L234.306,38.845 L237.441,38.845 L237.841,40.413 C239.407,39.245 240.975,38.507 242.941,38.507 C245.154,38.507 247.521,39.829 247.521,43.732 L247.521,53.379 L243.833,53.379" id="Fill-17" fill="#FFFFFE"></path>
            <path d="M256.462,41.273 C255.111,41.273 254.034,42.164 254.034,43.824 C254.034,45.36 254.987,46.651 256.614,46.651 C258.06,46.651 259.196,45.759 259.196,43.976 C259.196,42.626 258.183,41.273 256.462,41.273 Z M253.912,53.841 C253.42,54.179 252.682,54.731 252.682,55.746 C252.682,56.974 254.218,58.02 256.738,58.02 C258.859,58.02 260.427,57.344 260.427,56.206 C260.427,54.333 255.54,54.517 253.912,53.841 Z M256.431,60.631 C252.068,60.631 249.518,58.665 249.518,56.33 C249.518,54.669 250.715,53.502 252.191,52.857 C251.484,52.488 251.207,51.69 251.207,51.044 C251.207,50.154 251.822,49.108 253.052,48.339 C251.484,47.541 250.531,45.728 250.531,43.884 C250.531,41.12 252.62,38.446 256.554,38.446 C257.721,38.446 258.674,38.723 259.32,39.091 C259.503,39.183 259.596,39.123 259.688,38.998 C260.548,38.2 261.839,37.616 264.267,37.862 L263.499,40.597 C262.732,40.443 262.024,40.351 261.441,40.597 C262.3,41.519 262.823,42.593 262.823,44.254 C262.823,47.419 260.117,49.478 256.862,49.478 C256.093,49.478 255.51,49.415 254.894,49.202 C254.649,49.6 254.526,49.908 254.526,50.368 C254.526,52.551 264.451,50.492 264.451,55.808 C264.451,58.327 261.901,60.631 256.431,60.631 Z" id="Fill-18" fill="#FFFFFE"></path>
            <polygon id="Fill-19" fill="#FFFFFE" points="171.99 82.059 175.708 82.059 175.708 61.811 171.99 61.811"></polygon>
            <path d="M188.4,82.06 L188.4,73.517 C188.4,72.013 188.123,70.352 186.248,70.352 C184.959,70.352 183.697,71.028 182.561,71.889 L182.561,82.06 L178.875,82.06 L178.875,67.525 L182.007,67.525 L182.408,69.094 C183.974,67.925 185.541,67.187 187.508,67.187 C189.721,67.187 192.087,68.51 192.087,72.412 L192.087,82.06 L188.4,82.06" id="Fill-20" fill="#FFFFFE"></path>
            <path d="M195.251,82.059 L198.938,82.059 L198.938,67.525 L195.251,67.525 L195.251,82.059 Z M197.096,65.282 C195.836,65.282 194.821,64.3 194.821,63.04 C194.821,61.842 195.836,60.827 197.096,60.827 C198.386,60.827 199.401,61.811 199.401,63.04 C199.401,64.268 198.386,65.282 197.096,65.282 Z" id="Fill-21" fill="#FFFFFE"></path>
            <path d="M207.727,82.367 C205.146,82.367 204.132,80.923 204.132,78.957 L204.132,70.292 L201.551,70.292 L201.551,67.525 L204.132,67.525 L204.132,64.176 L207.819,63.069 L207.819,67.525 L212.336,67.525 L211.26,70.292 L207.819,70.292 L207.819,77.604 C207.819,78.742 208.249,79.265 209.201,79.265 C210.124,79.265 211.076,78.834 211.63,78.464 L212.613,80.802 C211.108,81.875 209.141,82.367 207.727,82.367" id="Fill-22" fill="#FFFFFE"></path>
            <path d="M214.457,82.059 L218.144,82.059 L218.144,67.525 L214.457,67.525 L214.457,82.059 Z M216.301,65.282 C215.041,65.282 214.027,64.3 214.027,63.04 C214.027,61.842 215.041,60.827 216.301,60.827 C217.592,60.827 218.607,61.811 218.607,63.04 C218.607,64.268 217.592,65.282 216.301,65.282 Z" id="Fill-23" fill="#FFFFFE"></path>
            <path d="M229.392,75.392 L227.301,75.453 C225.304,75.516 224.413,76.191 224.413,77.42 C224.413,78.618 225.242,79.448 226.779,79.448 C228.07,79.448 228.9,78.957 229.392,78.525 L229.392,75.392 Z M230.313,82.06 L229.698,80.769 C228.745,81.63 227.425,82.367 225.488,82.367 C222.816,82.367 220.726,80.555 220.726,77.696 C220.726,74.686 223.091,73.057 226.811,72.935 L229.392,72.843 C229.392,72.719 229.392,72.564 229.392,72.472 C229.392,70.722 228.161,70.016 226.625,70.016 C225.028,70.016 223.799,70.538 222.877,71.09 L221.678,68.785 C223.613,67.495 225.427,67.187 227.363,67.187 C230.957,67.187 233.14,68.663 233.14,72.472 L233.14,78.218 C233.14,80.309 233.2,81.383 233.416,82.06 L230.313,82.06 Z" id="Fill-24" fill="#FFFFFE"></path>
            <path d="M241.499,82.367 C238.917,82.367 237.903,80.923 237.903,78.957 L237.903,70.292 L235.322,70.292 L235.322,67.525 L237.903,67.525 L237.903,64.176 L241.591,63.069 L241.591,67.525 L246.107,67.525 L245.032,70.292 L241.591,70.292 L241.591,77.604 C241.591,78.742 242.022,79.265 242.973,79.265 C243.896,79.265 244.848,78.834 245.401,78.464 L246.384,80.802 C244.877,81.875 242.911,82.367 241.499,82.367" id="Fill-25" fill="#FFFFFE"></path>
            <path d="M248.843,82.059 L252.53,82.059 L252.53,67.525 L248.843,67.525 L248.843,82.059 Z M250.685,65.282 C249.427,65.282 248.413,64.3 248.413,63.04 C248.413,61.842 249.427,60.827 250.685,60.827 C251.976,60.827 252.99,61.811 252.99,63.04 C252.99,64.268 251.976,65.282 250.685,65.282 Z" id="Fill-26" fill="#FFFFFE"></path>
            <polyline id="Fill-27" fill="#FFFFFE" points="263.438 82.151 260.765 82.151 254.804 67.525 258.583 67.525 262.209 77.42 262.271 77.42 265.958 67.525 269.522 67.525 263.438 82.151"></polyline>
            <path d="M276.74,69.954 C274.959,69.954 273.882,71.55 273.882,73.148 L279.536,73.148 C279.476,71.582 278.614,69.954 276.74,69.954 Z M273.974,75.762 C274.036,77.912 275.819,79.416 278.062,79.416 C279.444,79.416 280.581,79.081 281.841,78.404 L282.732,80.769 C281.104,81.907 279.167,82.367 277.446,82.367 C272.377,82.367 270.226,78.681 270.226,74.777 C270.226,70.63 272.684,67.187 276.832,67.187 C280.765,67.187 283.348,70.168 283.348,74.686 C283.348,74.931 283.348,75.3 283.348,75.762 L273.974,75.762 Z" id="Fill-28" fill="#FFFFFE"></path>
            <polygon id="Fill-29" fill="#EB8B2D" points="303.294 85.998 304.057 85.998 304.057 0.135 303.294 0.135"></polygon>
            <polyline id="Fill-30" fill="#FFFFFE" points="328.276 20.511 325.401 20.511 325.401 23.04 328.249 23.04 328.249 24.239 325.401 24.239 325.401 28.086 324.002 28.086 324.002 19.313 328.702 19.313 328.276 20.511"></polyline>
            <path d="M330.496,24.931 C330.496,26.236 331.122,27.114 332.148,27.114 C333.212,27.114 333.785,26.209 333.785,24.931 C333.785,23.613 333.172,22.748 332.121,22.748 C331.056,22.748 330.496,23.64 330.496,24.931 Z M334.344,22.521 C334.903,23.094 335.209,23.946 335.209,24.917 C335.209,25.903 334.89,26.768 334.318,27.354 C333.772,27.899 333.026,28.219 332.134,28.219 C331.269,28.219 330.55,27.953 330.03,27.447 C329.418,26.861 329.085,25.97 329.085,24.957 C329.085,23.959 329.418,23.094 329.991,22.508 C330.524,21.949 331.269,21.63 332.134,21.63 C333.053,21.63 333.812,21.949 334.344,22.521 Z" id="Fill-31" fill="#FFFFFE"></path>
            <path d="M339.828,23.094 C339.602,22.974 339.35,22.921 339.123,22.921 C338.75,22.921 338.271,23.161 337.859,23.547 L337.859,28.086 L336.474,28.086 L336.474,21.789 L337.632,21.789 L337.805,22.482 C338.51,21.829 339.003,21.63 339.563,21.63 C339.855,21.63 340.161,21.736 340.361,21.869 L339.828,23.094" id="Fill-32" fill="#FFFFFE"></path>
            <polyline id="Fill-33" fill="#FFFFFE" points="350.635 28.126 349.543 28.126 348.078 23.573 348.038 23.573 346.574 28.126 345.483 28.126 343.26 21.789 344.671 21.789 346.082 26.289 346.121 26.289 347.56 21.789 348.664 21.789 350.129 26.302 350.155 26.302 351.553 21.789 352.885 21.789 350.635 28.126"></polyline>
            <path d="M354.653,24.931 C354.653,26.236 355.279,27.114 356.303,27.114 C357.368,27.114 357.941,26.209 357.941,24.931 C357.941,23.613 357.328,22.748 356.277,22.748 C355.212,22.748 354.653,23.64 354.653,24.931 Z M358.499,22.521 C359.059,23.094 359.365,23.946 359.365,24.917 C359.365,25.903 359.045,26.768 358.473,27.354 C357.927,27.899 357.182,28.219 356.289,28.219 C355.425,28.219 354.705,27.953 354.186,27.447 C353.574,26.861 353.241,25.97 353.241,24.957 C353.241,23.959 353.574,23.094 354.147,22.508 C354.679,21.949 355.425,21.63 356.289,21.63 C357.208,21.63 357.967,21.949 358.499,22.521 Z" id="Fill-34" fill="#FFFFFE"></path>
            <path d="M363.984,23.094 C363.758,22.974 363.505,22.921 363.279,22.921 C362.905,22.921 362.427,23.161 362.014,23.547 L362.014,28.086 L360.629,28.086 L360.629,21.789 L361.787,21.789 L361.96,22.482 C362.666,21.829 363.158,21.63 363.718,21.63 C364.011,21.63 364.317,21.736 364.517,21.869 L363.984,23.094" id="Fill-35" fill="#FFFFFE"></path>
            <polyline id="Fill-36" fill="#FFFFFE" points="369.029 28.086 366.632 25.038 366.619 25.038 366.619 28.086 365.235 28.086 365.235 18.661 366.619 18.661 366.619 23.959 366.632 23.959 368.749 21.789 370.413 21.789 367.764 24.452 370.693 28.086 369.029 28.086"></polyline>
            <path d="M373.659,22.708 C372.834,22.708 372.341,23.453 372.341,24.239 L374.964,24.239 C374.951,23.507 374.538,22.708 373.659,22.708 Z M372.355,25.264 C372.368,26.302 373.113,27.074 374.245,27.074 C374.804,27.074 375.337,26.915 375.829,26.635 L376.189,27.54 C375.564,27.993 374.725,28.219 373.992,28.219 C371.876,28.219 370.931,26.609 370.931,24.891 C370.931,23.094 371.982,21.63 373.686,21.63 C375.363,21.63 376.402,22.921 376.402,24.878 C376.402,24.971 376.402,25.104 376.402,25.264 L372.355,25.264 Z" id="Fill-37" fill="#FFFFFE"></path>
            <path d="M381.034,23.094 C380.808,22.974 380.555,22.921 380.328,22.921 C379.956,22.921 379.477,23.161 379.064,23.547 L379.064,28.086 L377.68,28.086 L377.68,21.789 L378.838,21.789 L379.011,22.482 C379.716,21.829 380.209,21.63 380.768,21.63 C381.061,21.63 381.367,21.736 381.567,21.869 L381.034,23.094" id="Fill-38" fill="#FFFFFE"></path>
            <path d="M383.735,28.219 C382.736,28.219 382.057,27.979 381.551,27.66 L382.017,26.635 C382.43,26.915 383.016,27.154 383.668,27.154 C384.361,27.154 384.826,26.874 384.826,26.395 C384.826,25.131 381.938,25.61 381.938,23.427 C381.938,22.402 382.736,21.63 384.214,21.63 C384.973,21.63 385.505,21.776 385.971,21.962 L385.971,23.134 C385.479,22.921 384.945,22.735 384.267,22.735 C383.695,22.735 383.281,22.921 383.281,23.36 C383.281,24.492 386.224,24.159 386.224,26.289 C386.224,27.674 385.052,28.219 383.735,28.219" id="Fill-39" fill="#FFFFFE"></path>
            <path d="M388.154,21.803 L387.355,21.43 C387.82,20.485 387.861,19.779 387.728,18.794 L389.059,18.541 C389.285,19.699 389.006,20.858 388.154,21.803" id="Fill-40" fill="#FFFFFE"></path>
            <path d="M394.74,23.094 C394.514,22.974 394.261,22.921 394.034,22.921 C393.661,22.921 393.183,23.161 392.77,23.547 L392.77,28.086 L391.386,28.086 L391.386,21.789 L392.543,21.789 L392.717,22.482 C393.422,21.829 393.914,21.63 394.474,21.63 C394.767,21.63 395.073,21.736 395.273,21.869 L394.74,23.094" id="Fill-41" fill="#FFFFFE"></path>
            <path d="M396.031,28.086 L397.415,28.086 L397.415,21.789 L396.031,21.789 L396.031,28.086 Z M397.602,19.832 C397.602,20.298 397.216,20.698 396.723,20.698 C396.217,20.698 395.831,20.311 395.831,19.832 C395.831,19.353 396.217,18.967 396.723,18.967 C397.216,18.967 397.602,19.34 397.602,19.832 Z" id="Fill-42" fill="#FFFFFE"></path>
            <path d="M400.358,23.946 C400.358,24.678 400.823,25.25 401.569,25.25 C402.275,25.25 402.793,24.811 402.793,23.986 C402.793,23.294 402.314,22.708 401.529,22.708 C400.863,22.708 400.358,23.161 400.358,23.946 Z M400.463,28.219 C400.211,28.392 399.824,28.659 399.824,29.151 C399.824,29.724 400.53,30.216 401.662,30.216 C402.687,30.216 403.393,29.87 403.393,29.298 C403.393,28.379 401.223,28.486 400.463,28.219 Z M401.542,31.241 C399.652,31.241 398.573,30.376 398.573,29.364 C398.573,28.659 399.079,28.139 399.732,27.847 C399.426,27.674 399.306,27.341 399.306,27.048 C399.306,26.688 399.545,26.236 400.077,25.876 C399.399,25.517 399.013,24.758 399.013,23.946 C399.013,22.721 399.958,21.616 401.516,21.616 C402.022,21.616 402.407,21.71 402.7,21.869 C402.767,21.909 402.807,21.895 402.86,21.856 C403.206,21.523 403.805,21.257 404.764,21.377 L404.444,22.455 C404.112,22.375 403.805,22.349 403.553,22.455 C403.939,22.868 404.192,23.373 404.192,24.066 C404.192,25.437 403.073,26.342 401.636,26.342 C401.316,26.342 401.063,26.315 400.81,26.222 C400.663,26.409 400.583,26.569 400.583,26.808 C400.583,27.74 404.91,26.822 404.91,29.151 C404.91,30.229 403.871,31.241 401.542,31.241 Z" id="Fill-43" fill="#FFFFFE"></path>
            <path d="M409.809,28.086 L409.809,24.332 C409.809,23.6 409.675,22.868 408.797,22.868 C408.171,22.868 407.585,23.267 407.132,23.653 L407.132,28.086 L405.748,28.086 L405.748,18.661 L407.132,18.661 L407.132,22.495 C407.758,22.002 408.41,21.63 409.263,21.63 C410.195,21.63 411.193,22.136 411.193,23.946 L411.193,28.086 L409.809,28.086" id="Fill-44" fill="#FFFFFE"></path>
            <path d="M414.747,28.219 C413.708,28.219 413.27,27.62 413.27,26.794 L413.27,22.868 L412.178,22.868 L412.178,21.789 L413.27,21.789 L413.27,20.365 L414.654,19.939 L414.654,21.789 L416.611,21.789 L416.171,22.868 L414.654,22.868 L414.654,26.302 C414.654,26.794 414.854,27.035 415.267,27.035 C415.679,27.035 416.078,26.822 416.331,26.648 L416.717,27.554 C416.118,27.993 415.346,28.219 414.747,28.219" id="Fill-45" fill="#FFFFFE"></path>
            <path d="M419.313,28.219 C418.315,28.219 417.636,27.979 417.13,27.66 L417.596,26.635 C418.008,26.915 418.594,27.154 419.246,27.154 C419.939,27.154 420.404,26.874 420.404,26.395 C420.404,25.131 417.516,25.61 417.516,23.427 C417.516,22.402 418.315,21.63 419.792,21.63 C420.551,21.63 421.083,21.776 421.549,21.962 L421.549,23.134 C421.057,22.921 420.525,22.735 419.845,22.735 C419.274,22.735 418.861,22.921 418.861,23.36 C418.861,24.492 421.802,24.159 421.802,26.289 C421.802,27.674 420.631,28.219 419.313,28.219" id="Fill-46" fill="#FFFFFE"></path>
            <path d="M423.705,28.259 C423.226,28.259 422.854,27.873 422.854,27.367 C422.854,26.874 423.226,26.489 423.705,26.489 C424.198,26.489 424.57,26.874 424.57,27.367 C424.57,27.873 424.198,28.259 423.705,28.259" id="Fill-47" fill="#FFFFFE"></path>
            <polyline id="Fill-48" fill="#FFFFFE" points="328.277 38.686 325.402 38.686 325.402 41.216 328.25 41.216 328.25 42.414 325.402 42.414 325.402 46.262 324.003 46.262 324.003 37.489 328.703 37.489 328.277 38.686"></polyline>
            <path d="M330.497,43.106 C330.497,44.411 331.123,45.29 332.149,45.29 C333.213,45.29 333.786,44.385 333.786,43.106 C333.786,41.789 333.173,40.923 332.122,40.923 C331.057,40.923 330.497,41.815 330.497,43.106 Z M334.345,40.697 C334.904,41.269 335.21,42.122 335.21,43.093 C335.21,44.079 334.891,44.944 334.319,45.53 C333.773,46.075 333.027,46.394 332.135,46.394 C331.27,46.394 330.551,46.128 330.031,45.623 C329.419,45.037 329.086,44.145 329.086,43.133 C329.086,42.135 329.419,41.269 329.992,40.684 C330.525,40.124 331.27,39.805 332.135,39.805 C333.054,39.805 333.813,40.124 334.345,40.697 Z" id="Fill-49" fill="#FFFFFE"></path>
            <path d="M339.829,41.269 C339.603,41.15 339.351,41.097 339.124,41.097 C338.751,41.097 338.272,41.336 337.86,41.722 L337.86,46.262 L336.475,46.262 L336.475,39.965 L337.633,39.965 L337.806,40.657 C338.511,40.005 339.004,39.805 339.564,39.805 C339.856,39.805 340.162,39.912 340.362,40.045 L339.829,41.269" id="Fill-50" fill="#FFFFFE"></path>
            <path d="M346.389,41.017 C345.897,41.017 345.604,41.136 345.364,41.243 L345.364,45.117 C345.604,45.21 345.869,45.237 346.216,45.237 C347.348,45.237 348.186,44.251 348.186,42.987 C348.186,41.895 347.521,41.017 346.389,41.017 Z M345.937,46.394 C345.084,46.394 344.405,46.208 343.98,45.969 L343.98,36.837 L345.364,36.837 L345.364,40.032 C345.75,39.898 346.162,39.805 346.642,39.805 C348.173,39.805 349.57,40.817 349.57,42.88 C349.57,45.09 347.92,46.394 345.937,46.394 Z" id="Fill-51" fill="#FFFFFE"></path>
            <path d="M353.271,40.884 C352.446,40.884 351.953,41.629 351.953,42.414 L354.576,42.414 C354.563,41.682 354.151,40.884 353.271,40.884 Z M351.967,43.439 C351.98,44.477 352.726,45.249 353.858,45.249 C354.416,45.249 354.948,45.09 355.442,44.811 L355.801,45.716 C355.175,46.168 354.336,46.394 353.604,46.394 C351.487,46.394 350.542,44.784 350.542,43.066 C350.542,41.269 351.594,39.805 353.298,39.805 C354.975,39.805 356.014,41.097 356.014,43.053 C356.014,43.146 356.014,43.28 356.014,43.439 L351.967,43.439 Z" id="Fill-52" fill="#FFFFFE"></path>
            <path d="M359.288,46.394 C358.25,46.394 357.811,45.795 357.811,44.97 L357.811,41.043 L356.719,41.043 L356.719,39.965 L357.811,39.965 L357.811,38.54 L359.195,38.115 L359.195,39.965 L361.152,39.965 L360.712,41.043 L359.195,41.043 L359.195,44.477 C359.195,44.97 359.395,45.21 359.808,45.21 C360.22,45.21 360.619,44.997 360.872,44.824 L361.259,45.729 C360.659,46.168 359.887,46.394 359.288,46.394" id="Fill-53" fill="#FFFFFE"></path>
            <path d="M364.213,46.394 C363.175,46.394 362.736,45.795 362.736,44.97 L362.736,41.043 L361.644,41.043 L361.644,39.965 L362.736,39.965 L362.736,38.54 L364.12,38.115 L364.12,39.965 L366.077,39.965 L365.638,41.043 L364.12,41.043 L364.12,44.477 C364.12,44.97 364.32,45.21 364.733,45.21 C365.145,45.21 365.544,44.997 365.797,44.824 L366.184,45.729 C365.584,46.168 364.812,46.394 364.213,46.394" id="Fill-54" fill="#FFFFFE"></path>
            <path d="M369.565,40.884 C368.738,40.884 368.246,41.629 368.246,42.414 L370.869,42.414 C370.856,41.682 370.443,40.884 369.565,40.884 Z M368.26,43.439 C368.274,44.477 369.019,45.249 370.151,45.249 C370.709,45.249 371.242,45.09 371.735,44.811 L372.094,45.716 C371.468,46.168 370.629,46.394 369.898,46.394 C367.78,46.394 366.835,44.784 366.835,43.066 C366.835,41.269 367.887,39.805 369.591,39.805 C371.269,39.805 372.307,41.097 372.307,43.053 C372.307,43.146 372.307,43.28 372.307,43.439 L368.26,43.439 Z" id="Fill-55" fill="#FFFFFE"></path>
            <path d="M376.94,41.269 C376.713,41.15 376.46,41.097 376.234,41.097 C375.861,41.097 375.382,41.336 374.969,41.722 L374.969,46.262 L373.585,46.262 L373.585,39.965 L374.742,39.965 L374.916,40.657 C375.621,40.005 376.113,39.805 376.673,39.805 C376.966,39.805 377.273,39.912 377.472,40.045 L376.94,41.269" id="Fill-56" fill="#FFFFFE"></path>
            <path d="M383.499,41.017 C383.007,41.017 382.714,41.136 382.474,41.243 L382.474,45.117 C382.714,45.21 382.98,45.237 383.325,45.237 C384.458,45.237 385.296,44.251 385.296,42.987 C385.296,41.895 384.631,41.017 383.499,41.017 Z M383.046,46.394 C382.195,46.394 381.516,46.208 381.09,45.969 L381.09,36.837 L382.474,36.837 L382.474,40.032 C382.861,39.898 383.273,39.805 383.752,39.805 C385.282,39.805 386.681,40.817 386.681,42.88 C386.681,45.09 385.029,46.394 383.046,46.394 Z" id="Fill-57" fill="#FFFFFE"></path>
            <path d="M392.245,46.262 L391.992,45.636 C391.539,46.022 390.847,46.394 390.022,46.394 C389.183,46.394 387.958,45.969 387.958,44.025 L387.958,39.965 L389.343,39.965 L389.343,43.932 C389.343,44.811 389.742,45.263 390.515,45.263 C391.113,45.263 391.606,44.917 391.886,44.638 L391.886,39.965 L393.27,39.965 L393.27,44.211 C393.27,45.53 393.297,45.969 393.39,46.262 L392.245,46.262" id="Fill-58" fill="#FFFFFE"></path>
            <path d="M396.57,46.394 C395.572,46.394 394.894,46.155 394.388,45.835 L394.854,44.811 C395.266,45.09 395.852,45.33 396.504,45.33 C397.196,45.33 397.662,45.05 397.662,44.571 C397.662,43.306 394.774,43.786 394.774,41.602 C394.774,40.577 395.572,39.805 397.05,39.805 C397.809,39.805 398.342,39.952 398.807,40.138 L398.807,41.31 C398.315,41.097 397.782,40.91 397.103,40.91 C396.53,40.91 396.118,41.097 396.118,41.536 C396.118,42.667 399.06,42.334 399.06,44.465 C399.06,45.849 397.889,46.394 396.57,46.394" id="Fill-59" fill="#FFFFFE"></path>
            <path d="M400.472,46.262 L401.856,46.262 L401.856,39.965 L400.472,39.965 L400.472,46.262 Z M402.042,38.008 C402.042,38.474 401.656,38.873 401.163,38.873 C400.657,38.873 400.272,38.487 400.272,38.008 C400.272,37.529 400.657,37.143 401.163,37.143 C401.656,37.143 402.042,37.515 402.042,38.008 Z" id="Fill-60" fill="#FFFFFE"></path>
            <path d="M407.713,46.262 L407.713,42.494 C407.713,41.815 407.58,41.043 406.728,41.043 C406.103,41.043 405.503,41.415 405.01,41.802 L405.01,46.262 L403.626,46.262 L403.626,39.965 L404.784,39.965 L404.944,40.671 C405.65,40.138 406.316,39.805 407.181,39.805 C408.112,39.805 409.098,40.417 409.098,42.055 L409.098,46.262 L407.713,46.262" id="Fill-61" fill="#FFFFFE"></path>
            <path d="M413.065,40.884 C412.239,40.884 411.746,41.629 411.746,42.414 L414.369,42.414 C414.356,41.682 413.944,40.884 413.065,40.884 Z M411.76,43.439 C411.774,44.477 412.519,45.249 413.651,45.249 C414.209,45.249 414.741,45.09 415.235,44.811 L415.594,45.716 C414.968,46.168 414.129,46.394 413.398,46.394 C411.28,46.394 410.335,44.784 410.335,43.066 C410.335,41.269 411.387,39.805 413.091,39.805 C414.769,39.805 415.807,41.097 415.807,43.053 C415.807,43.146 415.807,43.28 415.807,43.439 L411.76,43.439 Z" id="Fill-62" fill="#FFFFFE"></path>
            <path d="M418.721,46.394 C417.723,46.394 417.044,46.155 416.538,45.835 L417.004,44.811 C417.417,45.09 418.003,45.33 418.654,45.33 C419.347,45.33 419.814,45.05 419.814,44.571 C419.814,43.306 416.924,43.786 416.924,41.602 C416.924,40.577 417.723,39.805 419.2,39.805 C419.959,39.805 420.492,39.952 420.958,40.138 L420.958,41.31 C420.465,41.097 419.933,40.91 419.254,40.91 C418.681,40.91 418.269,41.097 418.269,41.536 C418.269,42.667 421.211,42.334 421.211,44.465 C421.211,45.849 420.039,46.394 418.721,46.394" id="Fill-63" fill="#FFFFFE"></path>
            <path d="M424.086,46.394 C423.088,46.394 422.409,46.155 421.904,45.835 L422.369,44.811 C422.781,45.09 423.367,45.33 424.02,45.33 C424.712,45.33 425.178,45.05 425.178,44.571 C425.178,43.306 422.289,43.786 422.289,41.602 C422.289,40.577 423.088,39.805 424.566,39.805 C425.324,39.805 425.858,39.952 426.322,40.138 L426.322,41.31 C425.83,41.097 425.298,40.91 424.618,40.91 C424.046,40.91 423.634,41.097 423.634,41.536 C423.634,42.667 426.575,42.334 426.575,44.465 C426.575,45.849 425.404,46.394 424.086,46.394" id="Fill-64" fill="#FFFFFE"></path>
            <path d="M428.479,46.435 C427.999,46.435 427.627,46.049 427.627,45.542 C427.627,45.05 427.999,44.664 428.479,44.664 C428.972,44.664 429.344,45.05 429.344,45.542 C429.344,46.049 428.972,46.435 428.479,46.435" id="Fill-65" fill="#FFFFFE"></path>
            <polyline id="Fill-66" fill="#FFFFFE" points="328.277 56.862 325.402 56.862 325.402 59.392 328.25 59.392 328.25 60.59 325.402 60.59 325.402 64.437 324.003 64.437 324.003 55.664 328.703 55.664 328.277 56.862"></polyline>
            <path d="M330.497,61.282 C330.497,62.586 331.123,63.465 332.149,63.465 C333.213,63.465 333.786,62.56 333.786,61.282 C333.786,59.964 333.173,59.099 332.122,59.099 C331.057,59.099 330.497,59.991 330.497,61.282 Z M334.345,58.873 C334.904,59.445 335.21,60.297 335.21,61.269 C335.21,62.254 334.891,63.119 334.319,63.705 C333.773,64.25 333.027,64.57 332.135,64.57 C331.27,64.57 330.551,64.304 330.032,63.798 C329.419,63.212 329.086,62.321 329.086,61.309 C329.086,60.31 329.419,59.445 329.992,58.859 C330.525,58.3 331.27,57.98 332.135,57.98 C333.054,57.98 333.813,58.3 334.345,58.873 Z" id="Fill-67" fill="#FFFFFE"></path>
            <path d="M339.829,59.445 C339.603,59.325 339.35,59.272 339.124,59.272 C338.751,59.272 338.272,59.512 337.859,59.897 L337.859,64.437 L336.475,64.437 L336.475,58.14 L337.633,58.14 L337.806,58.832 C338.511,58.18 339.004,57.98 339.563,57.98 C339.856,57.98 340.162,58.087 340.362,58.22 L339.829,59.445" id="Fill-68" fill="#FFFFFE"></path>
            <path d="M343.274,64.437 C343.673,59.817 347.547,59.884 347.547,57.94 C347.547,57.115 346.935,56.796 346.176,56.796 C345.231,56.796 344.498,57.128 343.952,57.408 L343.579,56.303 C344.273,55.97 345.217,55.584 346.415,55.584 C348.199,55.584 349.065,56.57 349.065,57.821 C349.065,60.39 345.55,60.643 345.018,63.239 L349.091,63.172 L349.091,64.437 L343.274,64.437" id="Fill-69" fill="#FFFFFE"></path>
            <path d="M353.324,56.716 C352.073,56.716 351.634,58.234 351.634,59.991 C351.634,62.201 352.273,63.438 353.391,63.438 C354.629,63.438 355.069,61.974 355.069,60.204 C355.069,58.007 354.43,56.716 353.324,56.716 Z M353.311,64.57 C351.394,64.57 350.196,62.999 350.196,60.097 C350.196,57.195 351.474,55.584 353.391,55.584 C355.294,55.584 356.506,57.195 356.506,60.097 C356.506,62.999 355.215,64.57 353.311,64.57 Z" id="Fill-70" fill="#FFFFFE"></path>
            <path d="M363.519,64.796 C362.64,67.232 361.628,67.592 360.536,67.592 C359.964,67.592 359.551,67.485 359.165,67.312 L359.511,66.247 C359.818,66.407 360.097,66.474 360.483,66.474 C361.176,66.474 361.801,65.954 362.28,64.437 L359.404,58.14 L360.883,58.14 L362.946,62.839 L362.973,62.839 L364.557,58.14 L365.941,58.14 L363.519,64.796" id="Fill-71" fill="#FFFFFE"></path>
            <path d="M369.107,59.059 C368.281,59.059 367.789,59.804 367.789,60.59 L370.411,60.59 C370.399,59.857 369.986,59.059 369.107,59.059 Z M367.803,61.615 C367.816,62.653 368.562,63.425 369.693,63.425 C370.252,63.425 370.784,63.266 371.277,62.986 L371.636,63.891 C371.011,64.344 370.172,64.57 369.44,64.57 C367.323,64.57 366.378,62.959 366.378,61.242 C366.378,59.445 367.43,57.98 369.133,57.98 C370.811,57.98 371.85,59.272 371.85,61.228 C371.85,61.322 371.85,61.455 371.85,61.615 L367.803,61.615 Z" id="Fill-72" fill="#FFFFFE"></path>
            <path d="M376.588,61.495 L375.564,61.535 C374.618,61.561 374.205,61.894 374.205,62.48 C374.205,63.039 374.578,63.452 375.297,63.452 C375.949,63.452 376.362,63.159 376.588,62.946 L376.588,61.495 Z M376.961,64.437 L376.695,63.851 C376.295,64.224 375.71,64.57 374.831,64.57 C373.727,64.57 372.82,63.811 372.82,62.586 C372.82,61.295 373.793,60.577 375.43,60.51 L376.602,60.47 C376.602,60.416 376.602,60.31 376.602,60.284 C376.602,59.405 376.042,59.085 375.337,59.085 C374.618,59.085 374.085,59.339 373.699,59.591 L373.234,58.7 C374.046,58.14 374.791,57.98 375.616,57.98 C377.054,57.98 377.999,58.58 377.999,60.217 L377.999,62.52 C377.999,63.718 378.027,64.184 378.119,64.437 L376.961,64.437 Z" id="Fill-73" fill="#FFFFFE"></path>
            <path d="M382.911,59.445 C382.685,59.325 382.432,59.272 382.205,59.272 C381.833,59.272 381.354,59.512 380.942,59.897 L380.942,64.437 L379.556,64.437 L379.556,58.14 L380.715,58.14 L380.888,58.832 C381.593,58.18 382.086,57.98 382.646,57.98 C382.938,57.98 383.244,58.087 383.444,58.22 L382.911,59.445" id="Fill-74" fill="#FFFFFE"></path>
            <path d="M385.611,64.57 C384.612,64.57 383.934,64.33 383.428,64.011 L383.894,62.986 C384.306,63.266 384.892,63.505 385.544,63.505 C386.237,63.505 386.702,63.226 386.702,62.747 C386.702,61.481 383.814,61.961 383.814,59.778 C383.814,58.752 384.612,57.98 386.09,57.98 C386.849,57.98 387.381,58.127 387.847,58.313 L387.847,59.485 C387.355,59.272 386.822,59.085 386.143,59.085 C385.571,59.085 385.158,59.272 385.158,59.711 C385.158,60.843 388.1,60.51 388.1,62.64 C388.1,64.024 386.929,64.57 385.611,64.57" id="Fill-75" fill="#FFFFFE"></path>
            <path d="M390.004,64.61 C389.525,64.61 389.153,64.224 389.153,63.718 C389.153,63.226 389.525,62.839 390.004,62.839 C390.496,62.839 390.869,63.226 390.869,63.718 C390.869,64.224 390.496,64.61 390.004,64.61" id="Fill-76" fill="#FFFFFE"></path>
        </g>
    </g>
</svg>