<svg width="621" height="162" viewBox="0 0 621 162" fill="none" xmlns="http://www.w3.org/2000/svg">
<g clip-path="url(#clip0)">
<path d="M119.441 78.8388C118.83 79.505 118.188 80.146 117.525 80.7627C112.259 85.6523 105.396 88.8414 97.8063 89.4627V72.0602V71.6851C99.4943 71.3804 101.093 70.8075 102.54 69.9966C107.246 67.3731 110.431 62.3518 110.431 56.5826C110.431 48.1012 103.554 41.2242 95.0729 41.2242C86.5927 41.2242 79.7125 48.1012 79.7125 56.5826C79.7125 56.6752 79.726 56.7659 79.726 56.856C75.4396 52.1007 69.8917 48.4982 63.6172 46.5831C67.8527 33.245 80.3323 23.58 95.0729 23.58C113.298 23.58 128.075 38.357 128.075 56.5851C128.075 65.1586 124.802 72.9706 119.441 78.8388ZM95.0729 137.943C80.3323 137.943 67.8516 128.279 63.6172 114.945C63.3432 114.08 63.1099 113.201 62.9041 112.31C62.3645 109.939 62.0688 107.477 62.0688 104.941C62.0688 99.9064 63.2031 95.1346 65.2208 90.8612C65.6093 90.0367 66.0407 89.2304 66.4959 88.4446L66.4844 88.4351L64.1407 87.081L64.1136 87.0679L53.1932 80.7607L64.1136 74.4564L64.138 74.4398L66.4812 73.0888L66.4959 73.0804L81.7677 64.2627L81.7817 64.2544L84.1251 62.9034L84.1527 62.8862L95.0729 56.5826V69.2075V71.9403V89.5836V92.317V104.941L84.1527 98.6372L84.1251 98.6216L81.7817 97.2695C81.3271 98.0586 80.9401 98.8898 80.6276 99.7607C80.0771 101.299 79.7593 102.947 79.726 104.668C79.726 104.761 79.7125 104.848 79.7125 104.941C79.7125 113.425 86.5927 120.3 95.0729 120.3C103.554 120.3 110.431 113.425 110.431 104.941C110.431 99.1722 107.246 94.1503 102.542 91.5279C108.986 90.1512 114.792 87.0315 119.44 82.6878C124.802 88.5564 128.075 96.3674 128.075 104.941C128.075 123.169 113.301 137.943 95.0729 137.943ZM60.2625 112.999C57.9844 113.495 55.6219 113.763 53.1932 113.763C34.9631 113.763 20.1891 98.9888 20.1891 80.7612C20.1891 62.5367 34.9631 47.7602 53.1932 47.7602C55.6219 47.7602 57.9844 48.0283 60.2651 48.5268C61.1588 48.7216 62.0412 48.9498 62.9052 49.2154C70.0401 51.4075 76.138 55.958 80.3047 61.9528L65.2208 70.6612L64.9057 70.8414C63.8229 69.5616 62.5287 68.4736 61.0849 67.6044C58.7765 66.2154 56.0823 65.4034 53.1932 65.4034C44.7099 65.4034 37.8328 72.2783 37.8328 80.7612C37.8328 89.245 44.7099 96.1227 53.1932 96.1227C56.0823 96.1227 58.7765 95.3075 61.0849 93.9211C59.9552 97.3935 59.336 101.097 59.336 104.943C59.336 107.714 59.6645 110.407 60.2625 112.999ZM80.7604 0.00402981C36.1541 0.00402981 0 36.1596 0 80.7638C0 125.363 36.1541 161.52 80.7604 161.52C125.359 161.52 161.512 125.363 161.512 80.7638C161.512 36.1596 125.359 0.00402981 80.7604 0.00402981Z" fill="#F68712"/>
<path d="M187.879 49.5774V15.208H207.021L205.301 20.4747H194.189V29.3919H205.301V34.6622H194.189V44.3102H207.021V49.5774H187.879Z" fill="white"/>
<path d="M220.371 50.0998C215.989 50.0998 214.269 47.6482 214.269 44.3102V29.6039H209.889V24.9067H214.269V19.2227L220.527 17.344V24.9067H228.196L226.368 29.6039H220.527V42.0154C220.527 43.9476 221.257 44.8336 222.873 44.8336C224.439 44.8336 226.056 44.1039 226.996 43.4742L228.664 47.4408C226.111 49.2643 222.773 50.0998 220.371 50.0998Z" fill="white"/>
<path d="M248.959 49.5774V35.182C248.959 32.4184 248.541 29.8102 245.203 29.8102C243.064 29.8102 240.875 31.0096 239.204 32.4184V49.5774H232.945V12.6507H239.204V27.5694C241.499 25.692 244.212 24.3334 247.395 24.3334C251.201 24.3334 255.269 26.16 255.269 33.4096V49.5774H248.959Z" fill="white"/>
<path d="M260.589 49.5774V24.9067H266.849V49.5774H260.589ZM263.72 21.1014C261.581 21.1014 259.861 19.432 259.861 17.2934C259.861 15.26 261.581 13.5374 263.72 13.5374C265.911 13.5374 267.632 15.208 267.632 17.2934C267.632 19.3787 265.911 21.1014 263.72 21.1014Z" fill="white"/>
<path d="M284.477 50.0998C276.445 50.0998 272.327 44.3102 272.327 37.3727C272.327 29.8654 277.749 24.3334 285.105 24.3334C288.444 24.3334 290.739 25.168 292.147 26.0547L292.041 31.169C290.321 29.8654 288.389 29.1351 285.836 29.1351C281.611 29.1351 278.584 32.4731 278.584 37.0607C278.584 41.2856 280.88 45.0398 285.781 45.0398C288.131 45.0398 289.903 44.3102 291.624 43.3184L293.188 47.4408C291.207 48.796 287.868 50.0998 284.477 50.0998Z" fill="white"/>
<path d="M310.243 38.2596L306.699 38.3648C303.308 38.4695 301.793 39.6174 301.793 41.7028C301.793 43.7356 303.204 45.1455 305.812 45.1455C308.003 45.1455 309.409 44.3102 310.243 43.5799V38.2596ZM311.809 49.5774L310.767 47.3872C309.151 48.8471 306.905 50.0998 303.621 50.0998C299.084 50.0998 295.536 47.0236 295.536 42.1711C295.536 37.0607 299.553 34.2966 305.863 34.0888L310.243 33.9331C310.243 33.7216 310.243 33.4607 310.243 33.3044C310.243 30.3331 308.159 29.1351 305.551 29.1351C302.839 29.1351 300.752 30.0211 299.187 30.9586L297.152 27.0467C300.44 24.856 303.517 24.3334 306.801 24.3334C312.907 24.3334 316.608 26.8387 316.608 33.3044V43.057C316.608 46.605 316.712 48.4294 317.077 49.5774H311.809Z" fill="white"/>
<path d="M328.136 50.0998C324.015 50.0998 322.452 47.7534 322.452 44.6774V12.6507H328.708V41.9132C328.708 43.7356 329.073 44.4664 330.376 44.4664C330.795 44.4664 331.317 44.4159 332.204 44.205L332.984 48.8471C331.16 49.8388 329.543 50.0998 328.136 50.0998Z" fill="white"/>
<path d="M209.837 69.157H200.447V98.258H194.085V69.157H184.123V63.8903H211.349L209.837 69.157Z" fill="white"/>
<path d="M224.696 79.3779C223.653 78.7544 222.557 78.5971 221.776 78.5971C220.316 78.5971 218.7 79.2768 217.029 80.7872V98.258H210.771V73.5888H216.039L216.716 76.1966C219.273 73.9555 221.203 73.0154 223.549 73.0154C224.749 73.0154 226.053 73.382 226.992 74.0602L224.696 79.3779Z" fill="white"/>
<path d="M243.371 86.9403L239.828 87.046C236.437 87.1512 234.924 88.2987 234.924 90.3846C234.924 92.4184 236.332 93.8274 238.94 93.8274C241.132 93.8274 242.539 92.9908 243.371 92.2622V86.9403ZM244.939 98.258L243.895 96.0679C242.279 97.5288 240.033 98.7815 236.751 98.7815C232.212 98.7815 228.667 95.705 228.667 90.8528C228.667 85.7408 232.683 82.9783 238.993 82.7695L243.371 82.6132C243.371 82.4039 243.371 82.1419 243.371 81.9856C243.371 79.0154 241.288 77.817 238.68 77.817C235.967 77.817 233.881 78.7023 232.316 79.6398L230.281 75.7274C233.568 73.5383 236.645 73.0154 239.931 73.0154C246.036 73.0154 249.736 75.5206 249.736 81.9856V91.7398C249.736 95.2867 249.841 97.1112 250.207 98.258H244.939Z" fill="white"/>
<path d="M270.235 78.3362C269.4 78.1283 268.672 77.9731 267.313 77.9731C262.88 77.9731 259.699 80.9435 259.699 85.7935C259.699 90.2788 262.619 93.6164 267.417 93.6164C268.409 93.6164 269.505 93.4602 270.235 93.2544V78.3362ZM266.844 98.7815C259.489 98.7815 253.441 94.4523 253.441 86.108C253.441 78.4408 259.127 73.0154 267.105 73.0154C268.357 73.0154 269.348 73.069 270.235 73.2252V61.3331H276.495V96.7987C274.147 98.0018 271.068 98.7815 266.844 98.7815Z" fill="white"/>
<path d="M281.867 98.258V73.5888H288.125V98.258H281.867ZM284.996 69.7815C282.859 69.7815 281.136 68.1143 281.136 65.9747C281.136 63.9408 282.859 62.2195 284.996 62.2195C287.188 62.2195 288.908 63.8903 288.908 65.9747C288.908 68.0602 287.188 69.7815 284.996 69.7815Z" fill="white"/>
<path d="M310.867 98.258V83.7596C310.867 81.205 310.396 78.3862 307.216 78.3862C305.024 78.3862 302.888 79.534 300.956 80.9946V98.258H294.696V73.5888H300.016L300.696 76.2507C303.355 74.2679 306.015 73.0154 309.352 73.0154C313.107 73.0154 317.125 75.2596 317.125 81.8846V98.258H310.867Z" fill="white"/>
<path d="M332.303 77.7112C330.009 77.7112 328.181 79.2216 328.181 82.0408C328.181 84.6487 329.797 86.8388 332.561 86.8388C335.015 86.8388 336.944 85.3242 336.944 82.2987C336.944 80.007 335.224 77.7112 332.303 77.7112ZM327.975 99.0435C327.14 99.6164 325.887 100.555 325.887 102.276C325.887 104.361 328.493 106.137 332.771 106.137C336.369 106.137 339.032 104.989 339.032 103.056C339.032 99.8779 330.739 100.191 327.975 99.0435ZM332.249 110.568C324.844 110.568 320.515 107.23 320.515 103.267C320.515 100.45 322.548 98.469 325.053 97.3727C323.852 96.7476 323.383 95.3935 323.383 94.296C323.383 92.784 324.427 91.0096 326.515 89.705C323.852 88.3492 322.236 85.2736 322.236 82.1419C322.236 77.4503 325.783 72.9122 332.459 72.9122C334.44 72.9122 336.057 73.382 337.152 74.006C337.465 74.1622 337.623 74.0602 337.777 73.8498C339.239 72.495 341.429 71.5034 345.549 71.9216L344.248 76.5632C342.944 76.3023 341.744 76.146 340.753 76.5632C342.212 78.1283 343.099 79.9512 343.099 82.7695C343.099 88.1419 338.508 91.6372 332.98 91.6372C331.676 91.6372 330.687 91.5315 329.641 91.1684C329.224 91.844 329.016 92.3674 329.016 93.1487C329.016 96.8528 345.864 93.3596 345.864 102.38C345.864 106.656 341.533 110.568 332.249 110.568Z" fill="white"/>
<path d="M188.923 146.94V112.572H195.233V146.94H188.923Z" fill="white"/>
<path d="M216.775 146.94V132.44C216.775 129.887 216.307 127.069 213.123 127.069C210.935 127.069 208.793 128.216 206.865 129.676V146.94H200.608V122.269H205.924L206.605 124.933C209.263 122.95 211.923 121.695 215.261 121.695C219.017 121.695 223.033 123.941 223.033 130.565V146.94H216.775Z" fill="white"/>
<path d="M228.405 146.94V122.269H234.663V146.94H228.405ZM231.535 118.464C229.396 118.464 227.675 116.797 227.675 114.656C227.675 112.623 229.396 110.901 231.535 110.901C233.725 110.901 235.448 112.572 235.448 114.656C235.448 116.742 233.725 118.464 231.535 118.464Z" fill="white"/>
<path d="M249.581 147.463C245.2 147.463 243.479 145.012 243.479 141.675V126.966H239.097V122.269H243.479V116.586L249.736 114.707V122.269H257.404L255.579 126.966H249.736V139.377C249.736 141.311 250.467 142.197 252.084 142.197C253.648 142.197 255.265 141.465 256.205 140.837L257.873 144.805C255.32 146.628 251.981 147.463 249.581 147.463Z" fill="white"/>
<path d="M261.004 146.94V122.269H267.261V146.94H261.004ZM264.135 118.464C261.996 118.464 260.273 116.797 260.273 114.656C260.273 112.623 261.996 110.901 264.135 110.901C266.325 110.901 268.047 112.572 268.047 114.656C268.047 116.742 266.325 118.464 264.135 118.464Z" fill="white"/>
<path d="M286.353 135.623L282.805 135.727C279.416 135.832 277.904 136.981 277.904 139.065C277.904 141.099 279.311 142.51 281.919 142.51C284.109 142.51 285.519 141.675 286.353 140.943V135.623ZM287.917 146.94L286.873 144.751C285.256 146.211 283.015 147.463 279.728 147.463C275.192 147.463 271.645 144.387 271.645 139.535C271.645 134.424 275.66 131.659 281.973 131.452L286.353 131.296C286.353 131.085 286.353 130.824 286.353 130.667C286.353 127.697 284.265 126.498 281.657 126.498C278.947 126.498 276.861 127.385 275.296 128.322L273.26 124.409C276.545 122.219 279.624 121.695 282.911 121.695C289.012 121.695 292.716 124.202 292.716 130.667V140.42C292.716 143.969 292.819 145.792 293.185 146.94H287.917Z" fill="white"/>
<path d="M306.904 147.463C302.523 147.463 300.8 145.012 300.8 141.675V126.966H296.421V122.269H300.8V116.586L307.061 114.707V122.269H314.727L312.903 126.966H307.061V139.377C307.061 141.311 307.792 142.197 309.407 142.197C310.972 142.197 312.589 141.465 313.527 140.837L315.197 144.805C312.64 146.628 309.303 147.463 306.904 147.463Z" fill="white"/>
<path d="M319.369 146.94V122.269H325.629V146.94H319.369ZM322.497 118.464C320.361 118.464 318.641 116.797 318.641 114.656C318.641 112.623 320.361 110.901 322.497 110.901C324.689 110.901 326.409 112.572 326.409 114.656C326.409 116.742 324.689 118.464 322.497 118.464Z" fill="white"/>
<path d="M344.144 147.095H339.605L329.488 122.269H335.904L342.057 139.065H342.161L348.421 122.269H354.471L344.144 147.095Z" fill="white"/>
<path d="M366.723 126.392C363.699 126.392 361.871 129.102 361.871 131.815H371.468C371.365 129.156 369.904 126.392 366.723 126.392ZM362.028 136.251C362.133 139.901 365.157 142.455 368.967 142.455C371.311 142.455 373.241 141.884 375.38 140.736L376.892 144.751C374.129 146.681 370.843 147.463 367.921 147.463C359.315 147.463 355.665 141.205 355.665 134.58C355.665 127.541 359.837 121.695 366.879 121.695C373.553 121.695 377.937 126.757 377.937 134.424C377.937 134.841 377.937 135.467 377.937 136.251H362.028Z" fill="white"/>
<path d="M405.405 0.00402981V161.52H404.103V0.00402981H405.405Z" fill="#F68712"/>
<path d="M439.217 61.0616H434.072V65.5883H439.171V67.732H434.072V74.6174H431.571V58.9184H439.98L439.217 61.0616Z" fill="white"/>
<path d="M443.192 68.9716C443.192 71.3055 444.311 72.8779 446.145 72.8779C448.052 72.8779 449.076 71.258 449.076 68.9716C449.076 66.6127 447.98 65.0638 446.099 65.0638C444.193 65.0638 443.192 66.6607 443.192 68.9716ZM450.077 64.6596C451.077 65.684 451.625 67.2086 451.625 68.9466C451.625 70.7107 451.053 72.2586 450.029 73.3075C449.052 74.2836 447.717 74.855 446.121 74.855C444.575 74.855 443.287 74.3794 442.357 73.4736C441.261 72.4247 440.667 70.8299 440.667 69.0184C440.667 67.232 441.261 65.684 442.287 64.6356C443.24 63.6351 444.575 63.0632 446.121 63.0632C447.765 63.0632 449.124 63.6351 450.077 64.6596Z" fill="white"/>
<path d="M459.891 65.684C459.485 65.469 459.033 65.3747 458.629 65.3747C457.961 65.3747 457.104 65.8028 456.367 66.494V74.6174H453.887V63.3487H455.96L456.269 64.5883C457.533 63.42 458.415 63.0632 459.416 63.0632C459.939 63.0632 460.487 63.2544 460.844 63.4919L459.891 65.684Z" fill="white"/>
<path d="M479.229 74.6883H477.276L474.655 66.5414H474.584L471.963 74.6883H470.009L466.032 63.3487H468.556L471.083 71.4012H471.153L473.727 63.3487H475.703L478.323 71.4247H478.371L480.872 63.3487H483.255L479.229 74.6883Z" fill="white"/>
<path d="M486.419 68.9716C486.419 71.3055 487.539 72.8779 489.372 72.8779C491.279 72.8779 492.304 71.258 492.304 68.9716C492.304 66.6127 491.207 65.0638 489.325 65.0638C487.42 65.0638 486.419 66.6607 486.419 68.9716ZM493.304 64.6596C494.304 65.684 494.852 67.2086 494.852 68.9466C494.852 70.7107 494.28 72.2586 493.256 73.3075C492.279 74.2836 490.945 74.855 489.349 74.855C487.801 74.855 486.515 74.3794 485.585 73.4736C484.489 72.4247 483.893 70.8299 483.893 69.0184C483.893 67.232 484.489 65.684 485.515 64.6356C486.467 63.6351 487.801 63.0632 489.349 63.0632C490.992 63.0632 492.351 63.6351 493.304 64.6596Z" fill="white"/>
<path d="M503.117 65.684C502.712 65.469 502.26 65.3747 501.856 65.3747C501.188 65.3747 500.331 65.8028 499.592 66.494V74.6174H497.115V63.3487H499.188L499.497 64.5883C500.759 63.42 501.641 63.0632 502.643 63.0632C503.165 63.0632 503.713 63.2544 504.071 63.4919L503.117 65.684Z" fill="white"/>
<path d="M512.145 74.6174L507.857 69.1616H507.833V74.6174H505.357V57.7507H507.833V67.232H507.857L511.644 63.3487H514.624L509.881 68.1132L515.124 74.6174H512.145Z" fill="white"/>
<path d="M520.432 64.993C518.955 64.993 518.073 66.3263 518.073 67.732H522.767C522.744 66.4222 522.004 64.993 520.432 64.993ZM518.097 69.5674C518.123 71.4247 519.456 72.8064 521.48 72.8064C522.48 72.8064 523.433 72.5206 524.315 72.0206L524.959 73.6403C523.84 74.4507 522.337 74.855 521.028 74.855C517.241 74.855 515.548 71.9731 515.548 68.9003C515.548 65.684 517.429 63.0632 520.479 63.0632C523.481 63.0632 525.34 65.3747 525.34 68.8752C525.34 69.0424 525.34 69.281 525.34 69.5674H518.097Z" fill="white"/>
<path d="M533.631 65.684C533.224 65.469 532.772 65.3747 532.367 65.3747C531.7 65.3747 530.843 65.8028 530.103 66.494V74.6174H527.627V63.3487H529.7L530.009 64.5883C531.271 63.42 532.152 63.0632 533.152 63.0632C533.677 63.0632 534.225 63.2544 534.583 63.4919L533.631 65.684Z" fill="white"/>
<path d="M538.461 74.855C536.675 74.855 535.46 74.4268 534.555 73.855L535.388 72.0206C536.127 72.5206 537.176 72.9498 538.343 72.9498C539.583 72.9498 540.416 72.4498 540.416 71.5919C540.416 69.3283 535.247 70.1862 535.247 66.2788C535.247 64.445 536.675 63.0632 539.319 63.0632C540.677 63.0632 541.629 63.3252 542.464 63.6586V65.7555C541.583 65.3747 540.629 65.0408 539.415 65.0408C538.391 65.0408 537.651 65.3747 537.651 66.1596C537.651 68.1846 542.917 67.5903 542.917 71.4012C542.917 73.8794 540.82 74.855 538.461 74.855Z" fill="white"/>
<path d="M546.369 63.3727L544.94 62.706C545.773 61.0143 545.845 59.7518 545.608 57.9894L547.989 57.5367C548.395 59.6091 547.895 61.682 546.369 63.3727Z" fill="white"/>
<path d="M558.156 65.684C557.752 65.469 557.299 65.3747 556.893 65.3747C556.227 65.3747 555.369 65.8028 554.631 66.494V74.6174H552.153V63.3487H554.225L554.535 64.5883C555.799 63.42 556.68 63.0632 557.68 63.0632C558.203 63.0632 558.753 63.2544 559.109 63.4919L558.156 65.684Z" fill="white"/>
<path d="M560.467 74.6174V63.3487H562.944V74.6174H560.467ZM563.277 59.8466C563.277 60.6804 562.587 61.3955 561.704 61.3955C560.8 61.3955 560.108 60.705 560.108 59.8466C560.108 58.9894 560.8 58.2992 561.704 58.2992C562.587 58.2992 563.277 58.9654 563.277 59.8466Z" fill="white"/>
<path d="M568.208 67.2086C568.208 68.5184 569.041 69.5435 570.376 69.5435C571.64 69.5435 572.568 68.7569 572.568 67.2799C572.568 66.0413 571.709 64.993 570.305 64.993C569.113 64.993 568.208 65.8028 568.208 67.2086ZM568.399 74.855C567.947 75.1648 567.255 75.6414 567.255 76.5231C567.255 77.5471 568.519 78.4288 570.543 78.4288C572.377 78.4288 573.64 77.8096 573.64 76.7856C573.64 75.1414 569.756 75.3326 568.399 74.855ZM570.328 80.2632C566.945 80.2632 565.017 78.7154 565.017 76.9039C565.017 75.6414 565.921 74.7116 567.088 74.1883C566.541 73.8794 566.327 73.2831 566.327 72.7586C566.327 72.1154 566.755 71.3055 567.708 70.6621C566.492 70.0189 565.803 68.6616 565.803 67.2086C565.803 65.0164 567.493 63.0394 570.281 63.0394C571.187 63.0394 571.877 63.2064 572.401 63.4919C572.521 63.5632 572.591 63.5393 572.688 63.4684C573.307 62.8727 574.377 62.396 576.093 62.6102L575.523 64.5408C574.927 64.3971 574.377 64.3498 573.925 64.5408C574.617 65.2788 575.071 66.184 575.071 67.4227C575.071 69.8768 573.068 71.4965 570.496 71.4965C569.923 71.4965 569.472 71.4487 569.019 71.2815C568.756 71.6154 568.613 71.9012 568.613 72.3304C568.613 73.9982 576.356 72.3544 576.356 76.5231C576.356 78.4528 574.497 80.2632 570.328 80.2632Z" fill="white"/>
<path d="M585.121 74.6174V67.8992C585.121 66.5888 584.883 65.2788 583.311 65.2788C582.192 65.2788 581.144 65.994 580.332 66.6846V74.6174H577.856V57.7507H580.332V64.6122C581.453 63.7299 582.62 63.0632 584.144 63.0632C585.812 63.0632 587.599 63.969 587.599 67.2086V74.6174H585.121Z" fill="white"/>
<path d="M593.959 74.855C592.1 74.855 591.315 73.7836 591.315 72.3064V65.2788H589.363V63.3487H591.315V60.8003L593.792 60.0383V63.3487H597.295L596.508 65.2788H593.792V71.4247C593.792 72.3064 594.149 72.7351 594.888 72.7351C595.627 72.7351 596.341 72.3544 596.795 72.044L597.484 73.6643C596.413 74.4507 595.032 74.855 593.959 74.855Z" fill="white"/>
<path d="M602.129 74.855C600.343 74.855 599.129 74.4268 598.223 73.855L599.057 72.0206C599.796 72.5206 600.844 72.9498 602.011 72.9498C603.251 72.9498 604.084 72.4498 604.084 71.5919C604.084 69.3283 598.915 70.1862 598.915 66.2788C598.915 64.445 600.343 63.0632 602.987 63.0632C604.347 63.0632 605.299 63.3252 606.132 63.6586V65.7555C605.251 65.3747 604.297 65.0408 603.083 65.0408C602.059 65.0408 601.32 65.3747 601.32 66.1596C601.32 68.1846 606.585 67.5903 606.585 71.4012C606.585 73.8794 604.488 74.855 602.129 74.855Z" fill="white"/>
<path d="M609.991 74.9268C609.133 74.9268 608.467 74.2356 608.467 73.3304C608.467 72.4498 609.133 71.7586 609.991 71.7586C610.872 71.7586 611.539 72.4498 611.539 73.3304C611.539 74.2356 610.872 74.9268 609.991 74.9268Z" fill="white"/>
<path d="M439.296 90.1227H434.149V94.6487H439.248V96.7919H434.149V103.677H431.647V87.9783H440.057L439.296 90.1227Z" fill="white"/>
<path d="M443.268 98.0315C443.268 100.366 444.389 101.938 446.223 101.938C448.129 101.938 449.153 100.319 449.153 98.0315C449.153 95.6736 448.057 94.1242 446.176 94.1242C444.269 94.1242 443.268 95.7206 443.268 98.0315ZM450.153 93.7206C451.153 94.745 451.703 96.2695 451.703 98.008C451.703 99.7711 451.131 101.319 450.107 102.367C449.129 103.344 447.796 103.916 446.2 103.916C444.651 103.916 443.365 103.439 442.435 102.534C441.34 101.486 440.744 99.8898 440.744 98.0799C440.744 96.2919 441.34 94.745 442.365 93.6955C443.316 92.6955 444.651 92.1242 446.2 92.1242C447.843 92.1242 449.2 92.6955 450.153 93.7206Z" fill="white"/>
<path d="M459.969 94.745C459.563 94.5299 459.111 94.4351 458.705 94.4351C458.037 94.4351 457.181 94.8632 456.443 95.5539V103.677H453.965V92.4091H456.037L456.348 93.6487C457.609 92.4804 458.491 92.1242 459.492 92.1242C460.016 92.1242 460.564 92.3138 460.921 92.5523L459.969 94.745Z" fill="white"/>
<path d="M471.707 94.2919C470.825 94.2919 470.303 94.5055 469.872 94.6955V101.629C470.303 101.796 470.777 101.844 471.397 101.844C473.421 101.844 474.923 100.081 474.923 97.817C474.923 95.8632 473.732 94.2919 471.707 94.2919ZM470.897 103.916C469.372 103.916 468.157 103.583 467.395 103.154V86.8116H469.872V92.5288C470.564 92.2908 471.303 92.1242 472.16 92.1242C474.899 92.1242 477.401 93.934 477.401 97.6268C477.401 101.581 474.447 103.916 470.897 103.916Z" fill="white"/>
<path d="M484.023 94.0539C482.545 94.0539 481.664 95.3872 481.664 96.7919H486.359C486.333 95.482 485.595 94.0539 484.023 94.0539ZM481.688 98.6279C481.712 100.485 483.047 101.866 485.072 101.866C486.072 101.866 487.025 101.581 487.907 101.081L488.549 102.701C487.429 103.511 485.928 103.916 484.619 103.916C480.831 103.916 479.14 101.034 479.14 97.9602C479.14 94.745 481.023 92.1242 484.071 92.1242C487.072 92.1242 488.929 94.4351 488.929 97.9362C488.929 98.1028 488.929 98.3414 488.929 98.6279H481.688Z" fill="white"/>
<path d="M494.791 103.916C492.932 103.916 492.145 102.844 492.145 101.366V94.3388H490.193V92.4091H492.145V89.8612L494.624 89.0992V92.4091H498.125L497.339 94.3388H494.624V100.485C494.624 101.366 494.98 101.796 495.72 101.796C496.459 101.796 497.173 101.414 497.625 101.104L498.316 102.724C497.245 103.511 495.863 103.916 494.791 103.916Z" fill="white"/>
<path d="M503.603 103.916C501.747 103.916 500.96 102.844 500.96 101.366V94.3388H499.007V92.4091H500.96V89.8612L503.436 89.0992V92.4091H506.939L506.152 94.3388H503.436V100.485C503.436 101.366 503.795 101.796 504.533 101.796C505.271 101.796 505.985 101.414 506.439 101.104L507.129 102.724C506.057 103.511 504.675 103.916 503.603 103.916Z" fill="white"/>
<path d="M513.18 94.0539C511.701 94.0539 510.821 95.3872 510.821 96.7919H515.515C515.491 95.482 514.752 94.0539 513.18 94.0539ZM510.845 98.6279C510.869 100.485 512.203 101.866 514.228 101.866C515.229 101.866 516.181 101.581 517.063 101.081L517.705 102.701C516.588 103.511 515.087 103.916 513.776 103.916C509.988 103.916 508.296 101.034 508.296 97.9602C508.296 94.745 510.179 92.1242 513.227 92.1242C516.229 92.1242 518.088 94.4351 518.088 97.9362C518.088 98.1028 518.088 98.3414 518.088 98.6279H510.845Z" fill="white"/>
<path d="M526.377 94.745C525.972 94.5299 525.52 94.4351 525.115 94.4351C524.447 94.4351 523.589 94.8632 522.852 95.5539V103.677H520.373V92.4091H522.447L522.756 93.6487C524.019 92.4804 524.9 92.1242 525.9 92.1242C526.424 92.1242 526.973 92.3138 527.329 92.5523L526.377 94.745Z" fill="white"/>
<path d="M538.116 94.2919C537.235 94.2919 536.711 94.5055 536.281 94.6955V101.629C536.711 101.796 537.187 101.844 537.807 101.844C539.832 101.844 541.332 100.081 541.332 97.817C541.332 95.8632 540.141 94.2919 538.116 94.2919ZM537.307 103.916C535.781 103.916 534.567 103.583 533.805 103.154V86.8116H536.281V92.5288C536.973 92.2908 537.711 92.1242 538.568 92.1242C541.308 92.1242 543.811 93.934 543.811 97.6268C543.811 101.581 540.856 103.916 537.307 103.916Z" fill="white"/>
<path d="M553.767 103.677L553.313 102.559C552.505 103.249 551.265 103.916 549.788 103.916C548.288 103.916 546.096 103.154 546.096 99.6763V92.4091H548.573V99.5096C548.573 101.081 549.288 101.891 550.671 101.891C551.743 101.891 552.624 101.271 553.124 100.771V92.4091H555.601V100.01C555.601 102.367 555.648 103.154 555.815 103.677H553.767Z" fill="white"/>
<path d="M561.508 103.916C559.721 103.916 558.507 103.487 557.601 102.916L558.435 101.081C559.173 101.581 560.221 102.01 561.388 102.01C562.628 102.01 563.463 101.51 563.463 100.652C563.463 98.3883 558.292 99.2466 558.292 95.3403C558.292 93.5055 559.721 92.1242 562.367 92.1242C563.723 92.1242 564.677 92.3856 565.511 92.719V94.817C564.629 94.4351 563.676 94.1018 562.461 94.1018C561.436 94.1018 560.699 94.4351 560.699 95.2206C560.699 97.245 565.963 96.6503 565.963 100.463C565.963 102.939 563.867 103.916 561.508 103.916Z" fill="white"/>
<path d="M568.488 103.677V92.4091H570.967V103.677H568.488ZM571.299 88.9075C571.299 89.7408 570.608 90.456 569.727 90.456C568.821 90.456 568.131 89.7659 568.131 88.9075C568.131 88.0498 568.821 87.3596 569.727 87.3596C570.608 87.3596 571.299 88.0263 571.299 88.9075Z" fill="white"/>
<path d="M581.447 103.677V96.9351C581.447 95.7206 581.208 94.3388 579.685 94.3388C578.565 94.3388 577.493 95.0055 576.611 95.6966V103.677H574.135V92.4091H576.207L576.492 93.6722C577.755 92.719 578.947 92.1242 580.493 92.1242C582.161 92.1242 583.924 93.2206 583.924 96.1487V103.677H581.447Z" fill="white"/>
<path d="M591.024 94.0539C589.547 94.0539 588.665 95.3872 588.665 96.7919H593.36C593.335 95.482 592.596 94.0539 591.024 94.0539ZM588.689 98.6279C588.713 100.485 590.047 101.866 592.072 101.866C593.073 101.866 594.025 101.581 594.907 101.081L595.549 102.701C594.431 103.511 592.929 103.916 591.62 103.916C587.831 103.916 586.14 101.034 586.14 97.9602C586.14 94.745 588.023 92.1242 591.072 92.1242C594.073 92.1242 595.931 94.4351 595.931 97.9362C595.931 98.1028 595.931 98.3414 595.931 98.6279H588.689Z" fill="white"/>
<path d="M601.147 103.916C599.361 103.916 598.145 103.487 597.24 102.916L598.075 101.081C598.812 101.581 599.861 102.01 601.028 102.01C602.267 102.01 603.1 101.51 603.1 100.652C603.1 98.3883 597.931 99.2466 597.931 95.3403C597.931 93.5055 599.361 92.1242 602.005 92.1242C603.363 92.1242 604.316 92.3856 605.148 92.719V94.817C604.267 94.4351 603.315 94.1018 602.099 94.1018C601.076 94.1018 600.337 94.4351 600.337 95.2206C600.337 97.245 605.601 96.6503 605.601 100.463C605.601 102.939 603.505 103.916 601.147 103.916Z" fill="white"/>
<path d="M610.748 103.916C608.961 103.916 607.747 103.487 606.841 102.916L607.675 101.081C608.413 101.581 609.461 102.01 610.628 102.01C611.867 102.01 612.701 101.51 612.701 100.652C612.701 98.3883 607.532 99.2466 607.532 95.3403C607.532 93.5055 608.961 92.1242 611.605 92.1242C612.963 92.1242 613.917 92.3856 614.751 92.719V94.817C613.868 94.4351 612.916 94.1018 611.7 94.1018C610.676 94.1018 609.937 94.4351 609.937 95.2206C609.937 97.245 615.201 96.6503 615.201 100.463C615.201 102.939 613.105 103.916 610.748 103.916Z" fill="white"/>
<path d="M618.608 103.987C617.751 103.987 617.084 103.297 617.084 102.391C617.084 101.51 617.751 100.819 618.608 100.819C619.489 100.819 620.156 101.51 620.156 102.391C620.156 103.297 619.489 103.987 618.608 103.987Z" fill="white"/>
</g>
<defs>
<clipPath id="clip0">
<rect width="620.16" height="161.52" fill="white"/>
</clipPath>
</defs>
</svg>
