<?xml version="1.0" encoding="UTF-8" standalone="no"?>
<svg width="284px" height="86px" viewBox="0 0 284 86" version="1.1" xmlns="http://www.w3.org/2000/svg" xmlns:xlink="http://www.w3.org/1999/xlink">
    <!-- Generator: Sketch 48.2 (47327) - http://www.bohemiancoding.com/sketch -->
    <title>eti-20-years-logo--no-tagline</title>
    <desc>Created with Sketch.</desc>
    <defs>
        <polygon id="path-1" points="0.06 0.135 63.281 0.135 63.281 84.595 0.06 84.595"></polygon>
    </defs>
    <g id="Page-1" stroke="none" stroke-width="1" fill="none" fill-rule="evenodd">
        <g id="eti-20-years-logo--no-tagline">
            <g id="Group-3">
                <mask id="mask-2" fill="white">
                    <use xlink:href="#path-1"></use>
                </mask>
                <g id="Clip-2"></g>
                <path d="M0,84.595 C3.298,44.141 40.581,40.716 40.581,25.245 C40.581,18.523 35.001,16.368 29.168,16.368 C20.544,16.368 14.203,19.031 7.356,22.075 L3.17,7.237 C10.906,4.066 20.671,0.135 33.226,0.135 C52.502,0.135 61.76,9.519 61.76,23.089 C61.76,44.648 30.309,54.032 24.856,68.87 L63.281,68.109 L63.281,84.595 L0,84.595" id="Fill-1" fill="#EB8B2D" mask="url(#mask-2)"></path>
            </g>
            <path d="M129.747,42.045 C129.422,42.399 129.081,42.74 128.728,43.068 C125.929,45.668 122.28,47.363 118.245,47.693 L118.245,38.242 C119.143,38.081 119.992,37.776 120.761,37.345 C123.264,35.95 124.957,33.28 124.957,30.213 C124.957,25.705 121.301,22.049 116.792,22.049 C112.284,22.049 108.626,25.705 108.626,30.213 C108.626,30.263 108.633,30.311 108.633,30.359 C106.355,27.831 103.405,25.916 100.07,24.897 C102.321,17.807 108.956,12.669 116.792,12.669 C126.481,12.669 134.337,20.524 134.337,30.214 C134.337,34.772 132.597,38.926 129.747,42.045 Z M116.792,73.467 C108.956,73.467 102.321,68.328 100.07,61.239 C99.924,60.78 99.8,60.312 99.691,59.839 C99.404,58.579 99.246,57.27 99.246,55.922 C99.246,53.246 99.85,50.708 100.922,48.437 C101.129,47.998 101.358,47.57 101.6,47.151 L101.594,47.147 L100.348,46.427 L100.334,46.42 L94.528,43.067 L100.334,39.715 L100.346,39.707 L101.592,38.988 L101.6,38.984 L109.719,34.296 L109.726,34.292 L110.972,33.574 L110.987,33.565 L116.792,30.213 L116.792,55.922 L110.987,52.571 L110.972,52.562 L109.726,51.844 C109.485,52.263 109.279,52.705 109.113,53.168 C108.82,53.986 108.651,54.861 108.633,55.776 C108.633,55.826 108.626,55.873 108.626,55.922 C108.626,60.432 112.284,64.087 116.792,64.087 C121.3,64.087 124.957,60.432 124.957,55.922 C124.957,52.855 123.263,50.185 120.763,48.791 C124.189,48.06 127.275,46.401 129.746,44.091 C132.596,47.211 134.337,51.364 134.337,55.922 C134.337,65.612 126.483,73.467 116.792,73.467 Z M98.286,60.205 C97.075,60.469 95.819,60.612 94.528,60.612 C84.837,60.612 76.983,52.758 76.983,43.067 C76.983,33.379 84.837,25.523 94.528,25.523 C95.819,25.523 97.075,25.666 98.288,25.931 C98.763,26.035 99.232,26.155 99.691,26.297 C103.484,27.462 106.726,29.881 108.941,33.068 L100.922,37.698 L100.755,37.794 C100.179,37.113 99.491,36.535 98.723,36.073 C97.497,35.334 96.064,34.903 94.528,34.903 C90.018,34.903 86.363,38.558 86.363,43.067 C86.363,47.577 90.018,51.233 94.528,51.233 C96.064,51.233 97.497,50.801 98.723,50.063 C98.123,51.91 97.794,53.878 97.794,55.923 C97.794,57.396 97.968,58.828 98.286,60.205 Z M109.183,0.135 C85.47,0.135 66.25,19.356 66.25,43.069 C66.25,66.779 85.47,86 109.183,86 C132.893,86 152.113,66.779 152.113,43.069 C152.113,19.356 132.893,0.135 109.183,0.135 Z" id="Fill-4" fill="#EB8B2D"></path>
            <polyline id="Fill-5" fill="#FFFFFE" points="171.376 24.699 171.376 4.451 182.654 4.451 181.64 7.553 175.093 7.553 175.093 12.807 181.64 12.807 181.64 15.911 175.093 15.911 175.093 21.596 182.654 21.596 182.654 24.699 171.376 24.699"></polyline>
            <path d="M190.518,25.006 C187.937,25.006 186.923,23.562 186.923,21.596 L186.923,12.932 L184.342,12.932 L184.342,10.164 L186.923,10.164 L186.923,6.815 L190.61,5.709 L190.61,10.164 L195.128,10.164 L194.052,12.932 L190.61,12.932 L190.61,20.243 C190.61,21.382 191.04,21.904 191.992,21.904 C192.915,21.904 193.867,21.474 194.422,21.103 L195.404,23.44 C193.9,24.514 191.933,25.006 190.518,25.006" id="Fill-6" fill="#FFFFFE"></path>
            <path d="M207.361,24.699 L207.361,16.218 C207.361,14.59 207.114,13.053 205.148,13.053 C203.888,13.053 202.598,13.759 201.614,14.59 L201.614,24.699 L197.926,24.699 L197.926,2.944 L201.614,2.944 L201.614,11.733 C202.966,10.626 204.564,9.826 206.439,9.826 C208.682,9.826 211.078,10.902 211.078,15.173 L211.078,24.699 L207.361,24.699" id="Fill-7" fill="#FFFFFE"></path>
            <path d="M214.213,24.699 L217.901,24.699 L217.901,10.164 L214.213,10.164 L214.213,24.699 Z M216.057,7.922 C214.797,7.922 213.783,6.939 213.783,5.679 C213.783,4.48 214.797,3.466 216.057,3.466 C217.348,3.466 218.362,4.451 218.362,5.679 C218.362,6.907 217.348,7.922 216.057,7.922 Z" id="Fill-8" fill="#FFFFFE"></path>
            <path d="M228.286,25.006 C223.554,25.006 221.127,21.596 221.127,17.508 C221.127,13.085 224.322,9.826 228.655,9.826 C230.622,9.826 231.975,10.318 232.804,10.84 L232.742,13.853 C231.729,13.085 230.591,12.655 229.086,12.655 C226.597,12.655 224.815,14.622 224.815,17.324 C224.815,19.813 226.167,22.025 229.055,22.025 C230.439,22.025 231.483,21.596 232.496,21.011 L233.418,23.44 C232.251,24.238 230.284,25.006 228.286,25.006" id="Fill-9" fill="#FFFFFE"></path>
            <path d="M243.466,18.031 L241.377,18.093 C239.38,18.155 238.488,18.831 238.488,20.059 C238.488,21.257 239.319,22.088 240.856,22.088 C242.146,22.088 242.975,21.596 243.466,21.165 L243.466,18.031 Z M244.388,24.699 L243.775,23.408 C242.822,24.269 241.499,25.006 239.565,25.006 C236.892,25.006 234.801,23.194 234.801,20.335 C234.801,17.324 237.168,15.696 240.885,15.574 L243.466,15.482 C243.466,15.357 243.466,15.204 243.466,15.111 C243.466,13.361 242.238,12.655 240.701,12.655 C239.103,12.655 237.874,13.177 236.952,13.729 L235.753,11.424 C237.691,10.134 239.503,9.826 241.438,9.826 C245.034,9.826 247.216,11.303 247.216,15.111 L247.216,20.857 C247.216,22.948 247.278,24.022 247.492,24.699 L244.388,24.699 Z" id="Fill-10" fill="#FFFFFE"></path>
            <path d="M254.007,25.006 C251.579,25.006 250.658,23.624 250.658,21.811 L250.658,2.944 L254.345,2.944 L254.345,20.183 C254.345,21.257 254.56,21.687 255.327,21.687 C255.573,21.687 255.881,21.658 256.404,21.534 L256.863,24.269 C255.789,24.852 254.836,25.006 254.007,25.006" id="Fill-11" fill="#FFFFFE"></path>
            <polyline id="Fill-12" fill="#FFFFFE" points="184.312 36.234 178.78 36.234 178.78 53.379 175.032 53.379 175.032 36.234 169.163 36.234 169.163 33.131 185.203 33.131 184.312 36.234"></polyline>
            <path d="M193.067,42.255 C192.452,41.888 191.806,41.795 191.346,41.795 C190.486,41.795 189.534,42.196 188.549,43.086 L188.549,53.379 L184.863,53.379 L184.863,38.845 L187.966,38.845 L188.365,40.381 C189.872,39.061 191.008,38.507 192.391,38.507 C193.097,38.507 193.866,38.723 194.419,39.123 L193.067,42.255" id="Fill-13" fill="#FFFFFE"></path>
            <path d="M204.069,46.711 L201.981,46.773 C199.984,46.835 199.092,47.511 199.092,48.74 C199.092,49.938 199.922,50.768 201.458,50.768 C202.749,50.768 203.578,50.276 204.069,49.846 L204.069,46.711 Z M204.992,53.379 L204.378,52.088 C203.425,52.949 202.103,53.686 200.168,53.686 C197.494,53.686 195.405,51.874 195.405,49.016 C195.405,46.004 197.772,44.376 201.489,44.254 L204.069,44.162 C204.069,44.038 204.069,43.884 204.069,43.792 C204.069,42.042 202.842,41.335 201.305,41.335 C199.706,41.335 198.478,41.857 197.555,42.41 L196.357,40.105 C198.294,38.815 200.106,38.507 202.042,38.507 C205.638,38.507 207.819,39.983 207.819,43.792 L207.819,49.538 C207.819,51.628 207.881,52.703 208.096,53.379 L204.992,53.379 Z" id="Fill-14" fill="#FFFFFE"></path>
            <path d="M219.895,41.642 C219.404,41.519 218.974,41.428 218.174,41.428 C215.563,41.428 213.688,43.178 213.688,46.035 C213.688,48.678 215.408,50.644 218.236,50.644 C218.82,50.644 219.465,50.552 219.895,50.43 L219.895,41.642 Z M217.898,53.686 C213.565,53.686 210.001,51.136 210.001,46.221 C210.001,41.704 213.351,38.507 218.051,38.507 C218.789,38.507 219.373,38.539 219.895,38.631 L219.895,31.624 L223.583,31.624 L223.583,52.519 C222.2,53.227 220.386,53.686 217.898,53.686 Z" id="Fill-15" fill="#FFFFFE"></path>
            <path d="M226.748,53.379 L230.436,53.379 L230.436,38.845 L226.748,38.845 L226.748,53.379 Z M228.592,36.602 C227.332,36.602 226.318,35.62 226.318,34.359 C226.318,33.161 227.332,32.147 228.592,32.147 C229.883,32.147 230.897,33.131 230.897,34.359 C230.897,35.587 229.883,36.602 228.592,36.602 Z" id="Fill-16" fill="#FFFFFE"></path>
            <path d="M243.833,53.379 L243.833,44.836 C243.833,43.332 243.556,41.671 241.683,41.671 C240.391,41.671 239.132,42.348 237.994,43.208 L237.994,53.379 L234.306,53.379 L234.306,38.845 L237.441,38.845 L237.841,40.413 C239.407,39.245 240.975,38.507 242.941,38.507 C245.154,38.507 247.521,39.829 247.521,43.732 L247.521,53.379 L243.833,53.379" id="Fill-17" fill="#FFFFFE"></path>
            <path d="M256.462,41.273 C255.111,41.273 254.034,42.164 254.034,43.824 C254.034,45.36 254.987,46.651 256.614,46.651 C258.06,46.651 259.196,45.759 259.196,43.976 C259.196,42.626 258.183,41.273 256.462,41.273 Z M253.912,53.841 C253.42,54.179 252.682,54.731 252.682,55.746 C252.682,56.974 254.218,58.02 256.738,58.02 C258.859,58.02 260.427,57.344 260.427,56.206 C260.427,54.333 255.54,54.517 253.912,53.841 Z M256.431,60.631 C252.068,60.631 249.518,58.665 249.518,56.33 C249.518,54.669 250.715,53.502 252.191,52.857 C251.484,52.488 251.207,51.69 251.207,51.044 C251.207,50.154 251.822,49.108 253.052,48.339 C251.484,47.541 250.531,45.728 250.531,43.884 C250.531,41.12 252.62,38.446 256.554,38.446 C257.721,38.446 258.674,38.723 259.32,39.091 C259.503,39.183 259.596,39.123 259.688,38.998 C260.548,38.2 261.839,37.616 264.267,37.862 L263.499,40.597 C262.732,40.443 262.024,40.351 261.441,40.597 C262.3,41.519 262.823,42.593 262.823,44.254 C262.823,47.419 260.117,49.478 256.862,49.478 C256.093,49.478 255.51,49.415 254.894,49.202 C254.649,49.6 254.526,49.908 254.526,50.368 C254.526,52.551 264.451,50.492 264.451,55.808 C264.451,58.327 261.901,60.631 256.431,60.631 Z" id="Fill-18" fill="#FFFFFE"></path>
            <polygon id="Fill-19" fill="#FFFFFE" points="171.99 82.059 175.708 82.059 175.708 61.811 171.99 61.811"></polygon>
            <path d="M188.4,82.06 L188.4,73.517 C188.4,72.013 188.123,70.352 186.248,70.352 C184.959,70.352 183.697,71.028 182.561,71.889 L182.561,82.06 L178.875,82.06 L178.875,67.525 L182.007,67.525 L182.408,69.094 C183.974,67.925 185.541,67.187 187.508,67.187 C189.721,67.187 192.087,68.51 192.087,72.412 L192.087,82.06 L188.4,82.06" id="Fill-20" fill="#FFFFFE"></path>
            <path d="M195.251,82.059 L198.938,82.059 L198.938,67.525 L195.251,67.525 L195.251,82.059 Z M197.096,65.282 C195.836,65.282 194.821,64.3 194.821,63.04 C194.821,61.842 195.836,60.827 197.096,60.827 C198.386,60.827 199.401,61.811 199.401,63.04 C199.401,64.268 198.386,65.282 197.096,65.282 Z" id="Fill-21" fill="#FFFFFE"></path>
            <path d="M207.727,82.367 C205.146,82.367 204.132,80.923 204.132,78.957 L204.132,70.292 L201.551,70.292 L201.551,67.525 L204.132,67.525 L204.132,64.176 L207.819,63.069 L207.819,67.525 L212.336,67.525 L211.26,70.292 L207.819,70.292 L207.819,77.604 C207.819,78.742 208.249,79.265 209.201,79.265 C210.124,79.265 211.076,78.834 211.63,78.464 L212.613,80.802 C211.108,81.875 209.141,82.367 207.727,82.367" id="Fill-22" fill="#FFFFFE"></path>
            <path d="M214.457,82.059 L218.144,82.059 L218.144,67.525 L214.457,67.525 L214.457,82.059 Z M216.301,65.282 C215.041,65.282 214.027,64.3 214.027,63.04 C214.027,61.842 215.041,60.827 216.301,60.827 C217.592,60.827 218.607,61.811 218.607,63.04 C218.607,64.268 217.592,65.282 216.301,65.282 Z" id="Fill-23" fill="#FFFFFE"></path>
            <path d="M229.392,75.392 L227.301,75.453 C225.304,75.516 224.413,76.191 224.413,77.42 C224.413,78.618 225.242,79.448 226.779,79.448 C228.07,79.448 228.9,78.957 229.392,78.525 L229.392,75.392 Z M230.313,82.06 L229.698,80.769 C228.745,81.63 227.425,82.367 225.488,82.367 C222.816,82.367 220.726,80.555 220.726,77.696 C220.726,74.686 223.091,73.057 226.811,72.935 L229.392,72.843 C229.392,72.719 229.392,72.564 229.392,72.472 C229.392,70.722 228.161,70.016 226.625,70.016 C225.028,70.016 223.799,70.538 222.877,71.09 L221.678,68.785 C223.613,67.495 225.427,67.187 227.363,67.187 C230.957,67.187 233.14,68.663 233.14,72.472 L233.14,78.218 C233.14,80.309 233.2,81.383 233.416,82.06 L230.313,82.06 Z" id="Fill-24" fill="#FFFFFE"></path>
            <path d="M241.499,82.367 C238.917,82.367 237.903,80.923 237.903,78.957 L237.903,70.292 L235.322,70.292 L235.322,67.525 L237.903,67.525 L237.903,64.176 L241.591,63.069 L241.591,67.525 L246.107,67.525 L245.032,70.292 L241.591,70.292 L241.591,77.604 C241.591,78.742 242.022,79.265 242.973,79.265 C243.896,79.265 244.848,78.834 245.401,78.464 L246.384,80.802 C244.877,81.875 242.911,82.367 241.499,82.367" id="Fill-25" fill="#FFFFFE"></path>
            <path d="M248.843,82.059 L252.53,82.059 L252.53,67.525 L248.843,67.525 L248.843,82.059 Z M250.685,65.282 C249.427,65.282 248.413,64.3 248.413,63.04 C248.413,61.842 249.427,60.827 250.685,60.827 C251.976,60.827 252.99,61.811 252.99,63.04 C252.99,64.268 251.976,65.282 250.685,65.282 Z" id="Fill-26" fill="#FFFFFE"></path>
            <polyline id="Fill-27" fill="#FFFFFE" points="263.438 82.151 260.765 82.151 254.804 67.525 258.583 67.525 262.209 77.42 262.271 77.42 265.958 67.525 269.522 67.525 263.438 82.151"></polyline>
            <path d="M276.74,69.954 C274.959,69.954 273.882,71.55 273.882,73.148 L279.536,73.148 C279.476,71.582 278.614,69.954 276.74,69.954 Z M273.974,75.762 C274.036,77.912 275.819,79.416 278.062,79.416 C279.444,79.416 280.581,79.081 281.841,78.404 L282.732,80.769 C281.104,81.907 279.167,82.367 277.446,82.367 C272.377,82.367 270.226,78.681 270.226,74.777 C270.226,70.63 272.684,67.187 276.832,67.187 C280.765,67.187 283.348,70.168 283.348,74.686 C283.348,74.931 283.348,75.3 283.348,75.762 L273.974,75.762 Z" id="Fill-28" fill="#FFFFFE"></path>
        </g>
    </g>
</svg>